<?xml version="1.0" encoding="utf-8"?>
<!-- Generator: Adobe Illustrator 24.3.0, SVG Export Plug-In . SVG Version: 6.00 Build 0)  -->
<svg data-content="changed"  preserveAspectRatio=''  class='' version="1.1" id="heroSvg" xmlns="http://www.w3.org/2000/svg" xmlns:xlink="http://www.w3.org/1999/xlink" x="0px" y="0px"
	 width="998.4px" height="795.7px" viewBox="0 0 998.4 795.7" enable-background="new 0 0 998.4 795.7" xml:space="preserve">
<g>
	<defs>
		<rect id="SVGID_1_" width="998.4" height="795.7"/>
	</defs>
	<clipPath id="heroSvg_SVGID_2_">
		<use xlink:href="#SVGID_1_"  overflow="visible"/>
	</clipPath>
	<rect x="825.9" y="327.9" clip-path="url(#heroSvg_SVGID_2_)" fill="#E2E9FF" width="172.5" height="164.2"/>
	<rect x="825.9" clip-path="url(#heroSvg_SVGID_2_)" fill="#B8EEF2" width="172.5" height="164.2"/>
	<rect x="479.9" y="328.2" clip-path="url(#heroSvg_SVGID_2_)" fill="#62D1FC" width="172.5" height="164.2"/>
	<g clip-path="url(#heroSvg_SVGID_2_)">
		<defs>
			<rect id="SVGID_3_" width="998.4" height="795.7"/>
		</defs>
		<clipPath id="heroSvg_SVGID_4_">
			<use xlink:href="#SVGID_3_"  overflow="visible"/>
		</clipPath>
		<path clip-path="url(#heroSvg_SVGID_4_)" fill="#FFFFFF" d="M332.3,479.8c-1.6-2.4-1.6-5.5-1.5-8.4c0.7-12.7,3.5-25.3,8.4-37.1
			c-8.4-4.3-10.2-15.4-10.6-24.8c-0.2-5.5-0.1-10.7,2.9-15.3c3.7-5.6,11.5-7.8,18-9.3c51.3-12,104.1-9.1,156.6-4.1
			c49.3,4.7,98.5,10.7,147.5,18c-0.1,19.6-0.1,39.2-0.2,58.9c0,2.4-0.3,5.3-2.5,6.3c-1.2,0.5-2.5,0.2-3.8,0
			c-30.3-6.5-60.8-13.5-92.5-17.1c-30.8-3.4-61.7,2.4-89.4,16.3c-24.5,12.3-45.5,32.6-72.4,37.9c1.4-10.7,5.9-21.8,12.9-30
			c6.3-7.5,14.5-14.3,13.3-23.9c-1.1-8.3-8.6-12.9-16.6-15.2c-10.7-3.1-22.5-2.6-32.6,1.9c-10.1,4.6-18.5,12.7-21.8,23.3
			c-1.9,6-2.2,12.4-4.3,18.3C342.1,479.9,336.7,486.5,332.3,479.8"/>
		<path clip-path="url(#heroSvg_SVGID_4_)" fill="#D2F4F7" d="M370.2,390.5c0,0-34.3-0.6-41.6,13.3l0.4,2.5l1,1.6c0,0,0.8-9.9,34.9-16.6
			L370.2,390.5z"/>
		<path clip-path="url(#heroSvg_SVGID_4_)" fill="#D2F4F7" d="M378.6,398c0,0-41.1-2.8-50,19.8l1.5,2.2l1.2,1.6c0,0,0-16.2,41-22.8
			L378.6,398z"/>
		<path clip-path="url(#heroSvg_SVGID_4_)" fill="#D2F4F7" d="M396.9,490.4c15.2-2.5,51.3-51.1,121.8-51.1c0,0,38.4-0.5,78.4,9.9
			c0,0,52.7,11.6,56,11.6l-1.1,4c0,0-20.6-4.4-51.1-9.7c-46.9-8.2-71-11.4-96.5-4.9c0,0-16,1.3-33.8,11.7
			c-11.2,6.6-24,15.5-36.7,21.8c-16.6,8.3-30.4,16.8-41.1,18.2C392.9,501.8,393.9,490.9,396.9,490.4"/>
		<path clip-path="url(#heroSvg_SVGID_4_)" fill="#484746" d="M401.7,500.5c5.1-1.6,10-3.6,14.7-5.9c4.7-2.3,9.4-4.9,13.9-7.6
			c9-5.4,17.7-11.3,26.7-16.7c9-5.3,18.3-10,28.2-13.5c9.8-3.5,19.9-6.1,30.2-7.7c10.3-1.6,20.8-2.1,31.2-1.6
			c5.2,0.2,10.4,0.8,15.5,1.5c2.6,0.4,5.1,0.9,7.7,1.3l7.7,1.5l61.8,11.9c6.8,1.3,12.5,1.8,12.6,1.1c0.1-0.7-5.3-2.3-12.1-3.6
			L578,449.4l-7.7-1.5c-2.6-0.5-5.2-0.9-7.8-1.3c-5.2-0.7-10.5-1.3-15.8-1.4c-10.6-0.4-21.2,0.1-31.6,1.8
			c-10.4,1.6-20.7,4.3-30.6,7.9c-9.9,3.6-19.4,8.3-28.5,13.8c-9,5.4-17.7,11.3-26.7,16.7c-4.5,2.7-9,5.2-13.7,7.6
			c-4.7,2.3-9.5,4.3-14.4,5.8c-1.2,0.3-2.3,0.7-3.3,1c-1,0.3-1.9,0.6-2.7,0.8c-1.5,0.5-2.4,1-2.4,1.2c0,0.2,1.1,0.3,2.7,0.1
			c0.8-0.1,1.8-0.2,2.8-0.5C399.4,501.1,400.5,500.8,401.7,500.5"/>
		<path clip-path="url(#heroSvg_SVGID_4_)" fill="#D2F4F7" d="M383.1,409.3c0,0-37.8-3.2-49.1,21.4l2.9,2.9l2.4,1c0,0,11-22.9,38.4-25
			L383.1,409.3z"/>
		<path clip-path="url(#heroSvg_SVGID_4_)" fill="#B8EEF2" d="M329.3,513.8c6.9,3.3,13.7,6.7,20.6,10c0.9,0.4,1.7,0.8,2.7,0.9
			c1.2,0,2.3-0.5,3.4-0.9c1.8-0.5,3.6-0.5,5.5-0.6c7.5-0.1,15-1.1,22.5-2c0.5-0.1,1-0.2,1.3-0.5c0.4-0.6,0-1.3-0.4-1.9
			c-3.8-5-9.8-7.8-15-11.4c-4.4-3-8.6-6.7-13.7-8.2c-2.3-0.7-4.7-0.9-7.1-0.9c-9.6,0-18.8,3.2-27.8,6.5c-0.9,0.3-2.8,1.1-2.9,2.2
			c-0.1,1.1,2,1.9,2.8,2.4C323.7,511.1,326.5,512.4,329.3,513.8"/>
		<path clip-path="url(#heroSvg_SVGID_4_)" fill="#62D1FC" d="M321.8,485.5c0.3-1.5,0.7-3,1-4.4c1.4-5.7,2.7-11.5,4-17.2
			c0.3-1.4,0.6-2.8,1.5-3.9c0.8-1.1,2.4-1.8,3.7-1.3c0.1,3.4-0.5,6.8-0.8,10.2c-0.3,3.4-0.2,6.9,1.1,10c0.8,1.8,2.3,3.6,4.3,3.9
			c2.4,0.3,4.4-1.7,5.9-3.6c0.8-1,1.5-2,1.9-3.2c0.4-1.1,0.4-2.3,0.6-3.4c0.5-5.3,1.6-10.5,3.5-15.5c0.1-0.3,0.2-0.6,0.5-0.8
			c0.2-0.1,0.5-0.2,0.7-0.2c4.4-0.4,8.8-0.8,13.2-0.9c0.3,0,0.6,0,0.8,0.2c0.2,0.2,0.2,0.7,0.1,1c-1.3,5.1-2.5,10.2-3.8,15.4
			c-0.9,3.8-1.9,7.6-2.8,11.4c-0.9,3.8-1.9,7.7-2.8,11.5c-0.7,2.7-1.3,5.5-2,8.2c-0.1,0.3-0.2,0.7-0.4,0.9c-0.3,0.2-0.6,0.3-1,0.3
			c-2.8,0.3-5.7,0.6-8.5,0.9c-3.7,0.4-7.4,0.8-11,1.2c-4.6,0.5-9.8,1.5-14.3,0.7c0-3.3,1.6-7.2,2.4-10.4
			C320.1,492.7,320.9,489.1,321.8,485.5"/>
		<path clip-path="url(#heroSvg_SVGID_4_)" fill="#11ADD1" d="M344.7,482.3c3.2-1,5.3-4.2,6.2-7.5c0.9-3.3,0.8-6.7,1.1-10.1
			c0.4-3.4,1.3-6.9,3.7-9.2c-1.7-0.1-3.5-0.1-5.2-0.2c-0.5,0-0.9,0-1.3,0.2c-0.3,0.2-0.5,0.5-0.7,0.9c-2,3.8-2.8,8.1-3.3,12.4
			c-0.3,2.5-0.4,5.1-1.2,7.5c-0.9,2.6-3,4.6-6.5,5.8C338.9,482.9,343.2,482.8,344.7,482.3"/>
		<path clip-path="url(#heroSvg_SVGID_4_)" fill="#49A1D6" d="M355.1,491.7c3.7-11.8,5-24.3,8.9-36.1c0.1-0.3,0.2-0.5,0.4-0.7
			c0.3-0.2,0.7,0,1.1,0.1c12.3,5.4,23.6,13,34.8,20.5c-4.6,15.2-9.2,30.4-13.8,45.5c0-0.1-17.1-7.8-18.7-8.6
			c-3.1-1.5-6.2-3.1-9.2-4.7c-1.5-0.8-3.1-1.6-4.6-2.4c-1.5-0.8-1.9-1-1.7-2.8C352.6,498.8,354,495.2,355.1,491.7"/>
		<path clip-path="url(#heroSvg_SVGID_4_)" fill="#484746" d="M362.6,456.1l-11.3,45.2c-0.3,1.3,0,2.4,0.7,2.6c0.7,0.2,1.5-0.7,1.8-2
			l10.5-45.4c0.2-0.9,0-1.7-0.5-1.8C363.4,454.6,362.8,455.3,362.6,456.1"/>
		<path clip-path="url(#heroSvg_SVGID_4_)" fill="#484746" d="M386.5,520l-32.4-16.3c-0.9-0.4-1.9-0.3-2.2,0.4c-0.3,0.6,0.2,1.5,1.1,2
			l32.8,15.6c0.6,0.3,1.3,0.2,1.5-0.3C387.4,520.9,387.1,520.3,386.5,520"/>
		<path clip-path="url(#heroSvg_SVGID_4_)" fill="#484746" d="M349.9,503.4l-31.8,2.4c-0.9,0.1-1.5,0.7-1.5,1.4c0.1,0.7,0.8,1.2,1.7,1.2
			l31.7-3.1c0.6-0.1,1.1-0.5,1-1C351.1,503.7,350.6,503.4,349.9,503.4"/>
		<path clip-path="url(#heroSvg_SVGID_4_)" fill="#484746" d="M327.2,460.3l-11.5,44.1c-0.3,1.2,0,2.4,0.7,2.5c0.7,0.2,1.5-0.7,1.8-1.9
			l10.8-44.3c0.2-0.9,0-1.7-0.5-1.8C328,458.8,327.4,459.4,327.2,460.3"/>
		<path clip-path="url(#heroSvg_SVGID_4_)" fill="#484746" d="M350.6,523.4l-31-16.3c-0.9-0.4-1.8-0.3-2.1,0.4c-0.3,0.6,0.1,1.5,1,2
			l31.4,15.6c0.6,0.3,1.3,0.2,1.5-0.3C351.5,524.3,351.2,523.7,350.6,523.4"/>
		<path clip-path="url(#heroSvg_SVGID_4_)" fill="#484746" d="M384.2,520.4l-32.5,3.2c-0.9,0.1-1.6,0.8-1.5,1.5c0.1,0.7,0.9,1.2,1.8,1.1
			l32.4-4c0.6-0.1,1.1-0.5,1-1C385.4,520.7,384.9,520.3,384.2,520.4"/>
		<path clip-path="url(#heroSvg_SVGID_4_)" fill="#484746" d="M399.2,476.6l-13.5,42.5c-0.4,1.2-0.1,2.3,0.6,2.5c0.7,0.2,1.5-0.6,1.9-1.7
			l12.7-42.7c0.3-0.8,0.1-1.6-0.4-1.8C400,475.3,399.4,475.8,399.2,476.6"/>
		<path clip-path="url(#heroSvg_SVGID_4_)" fill="#484746" d="M399.3,473.5c-10.6-7.2-21.7-13.6-33.2-19.3c-1-0.5-2-0.3-2.3,0.3
			c-0.3,0.6,0.2,1.5,1.2,2c11.5,5.4,22.6,11.6,33.3,18.5c0.6,0.4,1.3,0.4,1.6,0C400.2,474.6,399.9,473.9,399.3,473.5"/>
		<path clip-path="url(#heroSvg_SVGID_4_)" fill="#484746" d="M391.7,408.6c-5.3-0.4-10.7-0.3-16,0.5c-5.3,0.8-10.6,2.1-15.5,4.4
			c-4.9,2.2-9.5,5.3-13.3,9c-1.9,1.9-3.7,3.9-5.3,6.2c-0.8,1.1-1.5,2.3-2.2,3.4c-0.3,0.6-0.6,1.2-0.9,1.9l-0.8,1.8
			c-4.3,9.8-6.8,20.3-7.7,31c-0.1,1.3-0.2,2.7-0.2,4c-0.1,1.3-0.1,2.7,0,4.1c0.1,1.4,0.4,2.8,1,4.2c0.6,1.4,1.6,2.6,2.9,3.5
			c1.3,0.9,3.1,1.2,4.6,0.9c1.5-0.3,2.9-1.2,4-2.2c1.1-1,1.9-2.3,2.4-3.7c0.5-1.3,0.8-2.7,1-4.1c0.2-1.4,0.3-2.7,0.4-4
			c0.1-0.7,0.2-1.3,0.3-1.9c0.1-0.6,0.2-1.3,0.3-1.9c0.5-2.5,1.3-5,2.2-7.4c0.9-2.4,2.1-4.7,3.5-6.9c1.4-2.2,2.9-4.3,4.6-6.2
			c1.7-1.9,3.6-3.7,5.7-5.2c2.1-1.5,4.2-2.9,6.5-4.1c4.6-2.3,9.6-3.7,14.8-4.2c2.6-0.3,5.1-0.3,7.7-0.1c2.6,0.2,5.1,0.6,7.6,1.3
			c4.9,1.4,9.8,3.5,13.4,6.9c1.8,1.7,3.2,3.7,4.1,6c0.9,2.3,1.1,4.7,0.6,7c-0.5,2.3-1.8,4.5-3.3,6.6c-1.5,2-3.3,4-5.1,5.9
			c-4.7,5.2-8,9.8-7.5,10.3c0.5,0.5,4.8-3.4,9.4-8.6c1.7-2,3.6-3.9,5.2-6.1c1.6-2.2,3.1-4.7,3.7-7.5c0.7-2.8,0.3-5.9-0.7-8.5
			c-1-2.7-2.7-5-4.8-6.9c-2-1.9-4.4-3.4-6.9-4.6c-2.5-1.2-5-2.1-7.7-2.8c-2.6-0.7-5.3-1.1-8-1.4c-2.7-0.2-5.4-0.2-8.1,0.1
			c-5.4,0.5-10.7,2.1-15.6,4.5c-2.4,1.2-4.7,2.7-6.9,4.3c-2.2,1.7-4.1,3.5-6,5.5c-1.8,2-3.4,4.2-4.9,6.5c-1.4,2.3-2.7,4.7-3.6,7.3
			c-1,2.5-1.8,5.1-2.3,7.8c-0.2,0.7-0.2,1.3-0.3,2c-0.1,0.7-0.2,1.3-0.3,2c-0.1,1.3-0.2,2.6-0.4,3.9c-0.4,2.5-1.1,4.9-2.8,6.5
			c-0.8,0.8-1.8,1.4-2.9,1.6c-1,0.2-2.1,0-3-0.5c-0.9-0.6-1.6-1.5-2.1-2.5c-0.5-1-0.7-2.2-0.8-3.5c-0.1-1.2-0.1-2.5,0-3.8
			c0-1.3,0.1-2.6,0.2-3.9c0.8-10.4,3.3-20.7,7.5-30.3l0.8-1.8c0.2-0.6,0.5-1.1,0.8-1.7c0.6-1.1,1.3-2.2,2-3.3c1.5-2.1,3.2-4.1,5-5.9
			c3.7-3.6,8-6.5,12.8-8.7c4.7-2.2,9.8-3.5,14.9-4.3c5.2-0.7,10.4-0.9,15.6-0.5c4.9,0.4,8.8,0.7,8.9,0.1
			C400.6,410.1,396.7,409,391.7,408.6"/>
		<path clip-path="url(#heroSvg_SVGID_4_)" fill="#484746" d="M363.8,454.2c-4.8-0.4-9.6-0.3-14.4,0.6c-0.4,0.1-0.6,0.7-0.4,1.4
			c0.2,0.7,0.6,1.2,0.9,1.1c4.5-1,9.1-1.5,13.7-1.3c0.3,0,0.5-0.4,0.6-0.9C364.3,454.6,364.1,454.2,363.8,454.2"/>
		<path clip-path="url(#heroSvg_SVGID_4_)" fill="#484746" d="M331.3,457.4l-3.5,0.5c-0.1,0,0,0.6,0.1,1.3c0.2,0.7,0.4,1.2,0.5,1.2l3.3-1.2
			c0.1,0,0-0.4-0.1-0.9C331.5,457.8,331.3,457.4,331.3,457.4"/>
		<path clip-path="url(#heroSvg_SVGID_4_)" fill="#484746" d="M394,396.8c-14.2-0.8-28.5,1.2-41.9,6c-3.3,1.2-6.6,2.6-9.8,4.1
			c-3.2,1.5-6.5,3.4-9,6.3c-1.2,1.4-2.2,3.2-2.7,5.1c-0.5,1.9-0.6,3.8-0.4,5.7c0.5,3.8,2.3,7.4,5.2,10c1,0.8,2.1,1.3,2.9,1.5
			c0.9,0.1,1.4,0,1.5-0.3c0.1-0.3-0.2-0.8-0.7-1.3c-0.5-0.5-1.2-1.1-2-1.8c-2.4-2.1-4-5.1-4.4-8.3c-0.4-3.2,0.4-6.5,2.5-8.9
			c2.1-2.5,5.1-4.2,8.2-5.8c3.1-1.5,6.3-2.9,9.6-4.1c13.1-4.8,27.1-7,41-6.3c1.6,0.1,3-0.2,3-0.7C396.9,397.4,395.6,396.9,394,396.8
			"/>
		<path clip-path="url(#heroSvg_SVGID_4_)" fill="#484746" d="M379.8,389.5c-11.1,0-22.4,1.6-32.9,5.3c-2.6,0.9-5.3,1.9-7.8,3.2
			c-2.5,1.3-5,2.9-7.1,4.9c-4.3,4-6.6,10.6-4.4,16.5c0.2,0.5,0.5,0.9,0.7,1.3c0.3,0.3,0.6,0.6,0.9,0.8c0.6,0.4,1.1,0.5,1.4,0.2
			c0.5-0.5,0-1.8-0.5-3.3c-0.9-2.2-0.9-4.9-0.2-7.3c0.7-2.5,2.1-4.6,3.9-6.5c3.7-3.7,8.8-5.9,14-7.7c10.3-3.7,21.3-5.4,32.2-5.5
			c1.3,0,2.3-0.4,2.3-0.9C382.1,390,381.1,389.5,379.8,389.5"/>
		<path clip-path="url(#heroSvg_SVGID_4_)" fill="#484746" d="M642.3,396l-77.6-9.8c-12.9-1.6-25.9-3.3-38.8-4.8c-13-1.5-25.9-2.9-38.9-4
			c-6.5-0.6-13-1-19.5-1.4c-6.5-0.3-13-0.7-19.6-0.8c-6.5-0.2-13.1-0.2-19.6-0.2c-6.5,0.2-13.1,0.2-19.6,0.7c-6.5,0.3-13,1-19.6,1.5
			c-6.5,0.8-13,1.5-19.4,2.7c-3.2,0.5-6.5,1-9.7,1.7l-9.6,2c-3.2,0.7-6.4,1.6-9.6,2.9c-3.1,1.3-6.1,3-8.6,5.6
			c-3.2,3.4-4.6,7.7-4.4,10.7c0.1,1.5,0.4,2.7,0.8,3.5c0.4,0.8,0.7,1.1,0.9,1c0.4-0.1-0.1-1.8,0.2-4.5c0.3-2.6,1.7-6.1,4.5-9
			c2.1-2.2,4.8-3.8,7.7-5c2.9-1.2,6-2,9.1-2.8l9.5-2c3.2-0.7,6.4-1.2,9.6-1.8c6.4-1.2,12.8-1.9,19.3-2.7c6.5-0.6,12.9-1.3,19.4-1.6
			c6.5-0.5,13-0.5,19.5-0.7c6.5,0,13-0.1,19.5,0.2c6.5,0.1,13,0.5,19.5,0.8c6.5,0.4,13,0.8,19.5,1.4c13,1,25.9,2.4,38.9,3.9
			c12.9,1.5,25.9,3.1,38.8,4.7l77.6,9.6c6,0.8,11,1,11,0.5C653.2,397.8,648.4,396.8,642.3,396"/>
		<path clip-path="url(#heroSvg_SVGID_4_)" fill="#484746" d="M332.6,471.1c1.3-0.1,2.6,0.3,3.6,1c1,0.7,1.6,1.8,1.5,2.9
			c0,1.1-0.6,2.1-1.6,2.8c-1,0.6-2.3,0.9-3.4,0.8c-0.4,0-0.8,0.5-1,1.2c-0.2,0.7,0.2,1.4,0.8,1.4c1.8,0.1,3.5-0.4,5-1.5
			c1.5-1,2.5-2.9,2.4-4.8c0-1.9-1.2-3.6-2.6-4.5c-1.5-0.9-3.2-1.3-4.9-1.1c-0.4,0-0.6,0.5-0.5,1C332,470.8,332.3,471.2,332.6,471.1"
			/>
		<polygon clip-path="url(#heroSvg_SVGID_4_)" fill="#B8EEF2" points="245.6,571.4 245.8,622.3 281,598.7 281,547.6 		"/>
		<polygon clip-path="url(#heroSvg_SVGID_4_)" fill="#8AE2F9" points="246.4,623.3 291.4,638.8 327.5,614.8 280.8,599 		"/>
		<polygon clip-path="url(#heroSvg_SVGID_4_)" fill="#DAE2F2" points="191.8,762.7 231.7,738.4 337.1,761.2 286.6,795.7 		"/>
		<polygon clip-path="url(#heroSvg_SVGID_4_)" fill="#4572AC" points="196.3,554.3 242.8,570.6 279.7,546.5 230.7,529.3 		"/>
		<polygon clip-path="url(#heroSvg_SVGID_4_)" fill="#57CED7" points="0.7,486 49.1,502.8 84.5,478.7 37.6,461.6 		"/>
		<polygon clip-path="url(#heroSvg_SVGID_4_)" fill="#8AE2F9" points="52.2,503.4 98,519 130.4,495 85.8,479.4 		"/>
		<polygon clip-path="url(#heroSvg_SVGID_4_)" fill="#62D1FC" points="100.6,416.5 147,432.1 180.2,409.5 135,393.8 		"/>
		<polygon clip-path="url(#heroSvg_SVGID_4_)" fill="#4572AC" points="150.3,433.1 196.1,449.2 228.9,427 183.5,410.7 		"/>
		<polygon clip-path="url(#heroSvg_SVGID_4_)" fill="#8AE2F9" points="196.7,502.7 196.9,553.6 232.2,529.3 232.2,478.9 		"/>
		<polygon clip-path="url(#heroSvg_SVGID_4_)" fill="#57CED7" points="196.7,451.3 196.9,502.2 231.4,477.9 231.4,427.5 		"/>
		<polygon clip-path="url(#heroSvg_SVGID_4_)" fill="#57CED7" points="294,639.9 294.1,690.8 329.4,666.5 329.4,616.1 		"/>
		<polygon clip-path="url(#heroSvg_SVGID_4_)" fill="#62D1FC" points="196.3,711.8 196.5,762.7 231.7,738.4 231.7,688 		"/>
		<polygon clip-path="url(#heroSvg_SVGID_4_)" fill="#8AE2F9" points="196.5,710.4 196.5,658.9 232.5,671.3 231.7,687 		"/>
		<polygon clip-path="url(#heroSvg_SVGID_4_)" fill="#4572AC" points="196,605.8 196,658 243.1,674.9 243.1,622.4 		"/>
		<polygon clip-path="url(#heroSvg_SVGID_4_)" fill="#62D1FC" points="196,553.7 196,605.1 243.1,621.2 243.1,570.3 		"/>
		<polygon clip-path="url(#heroSvg_SVGID_4_)" fill="#62D1FC" points="243.8,622.8 243.8,675 290.8,691.9 290.8,639.4 		"/>
		<polygon clip-path="url(#heroSvg_SVGID_4_)" fill="#57CED7" points="2.5,538.3 3.2,590.5 50.2,607.4 49.5,554.9 		"/>
		<polygon clip-path="url(#heroSvg_SVGID_4_)" fill="#7CC193" points="1,486.2 2.5,537.6 49.5,553.7 49.5,502.8 		"/>
		<polygon clip-path="url(#heroSvg_SVGID_4_)" fill="#B8EEF2" points="51.7,555.3 51.7,607.5 98,624.4 98,571.9 		"/>
		<polygon clip-path="url(#heroSvg_SVGID_4_)" fill="#62D1FC" points="51,503.1 51.7,554.6 98,570.7 98,519 		"/>
		<polygon clip-path="url(#heroSvg_SVGID_4_)" fill="#49A1D6" points="99.9,468.1 99.9,520.3 146.2,536.4 146.2,484.7 		"/>
		<polygon clip-path="url(#heroSvg_SVGID_4_)" fill="#57CED7" points="100.7,417.4 99.9,468.1 146.2,485.7 146.2,434 		"/>
		<polygon clip-path="url(#heroSvg_SVGID_4_)" fill="#62D1FC" points="146.9,485 146.9,537.3 193.9,554.1 193.9,501.7 		"/>
		<polygon clip-path="url(#heroSvg_SVGID_4_)" fill="#8AE2F9" points="147.7,433.7 147.7,485.9 193.9,502 193.9,450.3 		"/>
		<polygon clip-path="url(#heroSvg_SVGID_4_)" fill="#49A1D6" points="99.9,678.4 99.9,729.9 145.4,746.7 145.4,694.2 		"/>
		<polygon clip-path="url(#heroSvg_SVGID_4_)" fill="#57CED7" points="99.9,624.7 99.9,677 145.4,693 145.4,641.3 		"/>
		<polygon clip-path="url(#heroSvg_SVGID_4_)" fill="#B8EEF2" points="146.1,694.6 146.1,746.1 193.1,762.9 193.1,710.5 		"/>
		<polygon clip-path="url(#heroSvg_SVGID_4_)" fill="#49A1D6" points="146.1,640.9 146.1,693.2 193.1,709.3 193.1,657.6 		"/>
		<polygon clip-path="url(#heroSvg_SVGID_4_)" fill="#7CC193" points="100.9,572.8 100.9,625 145.6,641.8 145.6,588.6 		"/>
		<polygon clip-path="url(#heroSvg_SVGID_4_)" fill="#B8EEF2" points="100.1,520.6 100.1,572.1 145.6,588.2 145.6,536.5 		"/>
		<polygon clip-path="url(#heroSvg_SVGID_4_)" fill="#62D1FC" points="146.3,589 146.3,641.2 193.4,658.1 193.4,605.6 		"/>
		<polygon clip-path="url(#heroSvg_SVGID_4_)" fill="#49A1D6" points="146.3,536.8 146.3,589.1 193.4,605.2 193.4,553.5 		"/>
		<path clip-path="url(#heroSvg_SVGID_4_)" fill="#484746" d="M0,488.6l1.4,96.6c0.1,2.7,0.7,4.8,1.4,4.8c0.7,0,1.3-2.2,1.2-4.9l-2.2-96.5
			c0-1.9-0.5-3.4-1-3.4S0,486.7,0,488.6"/>
		<path clip-path="url(#heroSvg_SVGID_4_)" fill="#484746" d="M285.1,688.3L16.7,593.7c-7.4-2.6-13.6-4.2-13.9-3.5c-0.2,0.7,5.6,3.3,13,5.9
			l268.7,93.9c5.2,1.8,9.6,2.9,9.7,2.5C294.4,692,290.4,690.2,285.1,688.3"/>
		<path clip-path="url(#heroSvg_SVGID_4_)" fill="#484746" d="M285.1,636.2L16.7,541.5c-7.4-2.6-13.6-4.2-13.9-3.5c-0.2,0.7,5.6,3.3,13,5.9
			l268.7,93.9c5.2,1.8,9.6,2.9,9.7,2.5C294.4,639.9,290.4,638,285.1,636.2"/>
		<path clip-path="url(#heroSvg_SVGID_4_)" fill="#484746" d="M237.5,567.4L13,488.6c-6.2-2.2-11.4-3.4-11.7-2.7c-0.2,0.7,4.6,3,10.8,5.1
			l224.8,78c4.4,1.5,8,2.4,8.2,1.9C245.3,570.5,241.9,568.9,237.5,567.4"/>
		<path clip-path="url(#heroSvg_SVGID_4_)" fill="#484746" d="M227.1,740.5c-0.5,0.3-0.2,0.2-0.1,0.1l0.3-0.2l0.5-0.4l0.2-0.1l-0.3,0.2
			L227.1,740.5l-6.3,4.3l-14.8,10c-2.5,1.7-4.8,3.7-7.3,5c-2.5,1.3-5.2,1.5-7.9,0.6l-16.9-5.9l-67.6-23.7c-3.7-1.3-7-1.8-7.2-1.1
			c-0.2,0.7,2.6,2.3,6.3,3.6l67.7,23.3l17,5.8c1.5,0.5,3.1,0.7,4.8,0.6c1.7-0.1,3.3-0.6,4.7-1.4c2.8-1.5,5.1-3.5,7.5-5.2l14.8-10.1
			l8.4-5.8l3.1-2.2l0.7-0.5c0.1-0.1,0.2-0.2,0.2-0.2c0,0,0.1-0.1-0.1,0l-0.2,0c-0.1,0-0.3,0.1-0.4,0.1l-0.8,0.3l-0.5,0.2l0.6-0.2
			l0.8-0.3c0.2-0.1,0.2,0,0.2-0.1l0.2,0l0.2,0l0,0l0.1,0c0,0,0,0.1,0,0.1c-0.1,0.1-0.4,0.3-0.7,0.5l-3.2,2.1l-1.6,1.1l-0.8,0.5
			l-0.2,0.1l0,0c-0.2-0.2,0.4,0.5-0.4-0.5c0.8,1,0.2,0.3,0.4,0.5l0,0l0.2-0.2c2.3-1.6,3.9-3.2,3.7-3.6
			C231.5,738,229.4,738.9,227.1,740.5"/>
		<path clip-path="url(#heroSvg_SVGID_4_)" fill="#484746" d="M192.9,709.1l-89-31.3c-2.5-0.9-4.6-1-4.9-0.3c-0.2,0.7,1.6,1.9,4,2.8
			l89.2,30.6c1.7,0.6,3.3,0.7,3.4,0.2C195.9,710.6,194.6,709.7,192.9,709.1"/>
		<path clip-path="url(#heroSvg_SVGID_4_)" fill="#484746" d="M231.2,687.3l-34.1,21.8c-0.9,0.6-1.4,1.6-1,2.2c0.4,0.6,1.5,0.6,2.4,0
			l33.7-22.4c0.7-0.4,1-1.1,0.7-1.5C232.6,686.8,231.9,686.8,231.2,687.3"/>
		<path clip-path="url(#heroSvg_SVGID_4_)" fill="#484746" d="M231.9,673.5l-1.5,61.9c0,1.7,0.5,3.1,1.2,3.1c0.7,0,1.3-1.4,1.4-3.1l0.7-61.9
			c0-1.2-0.4-2.2-0.9-2.2C232.4,671.3,232,672.3,231.9,673.5"/>
		<path clip-path="url(#heroSvg_SVGID_4_)" fill="#484746" d="M195.3,461.4c-1,95.2-1.2,190.4-2.2,285.5c-0.1,7.9,0.4,14.3,1.1,14.3
			c0.7,0,1.4-6.4,1.5-14.3c0.7-95.2,0.7-190.4,1.4-285.5c0.1-5.5-0.3-10-0.8-10C195.8,451.3,195.3,455.8,195.3,461.4"/>
		<path clip-path="url(#heroSvg_SVGID_4_)" fill="#484746" d="M146.8,444.1l-1.2,288.2c0,8,0.5,14.4,1.3,14.4c0.7,0,1.3-6.5,1.3-14.4
			l0.4-288.2c0-5.6-0.4-10.1-0.9-10.1C147.2,433.9,146.8,438.5,146.8,444.1"/>
		<path clip-path="url(#heroSvg_SVGID_4_)" fill="#484746" d="M98.9,427.4l-0.4,287.2c0,7.9,0.6,14.4,1.3,14.4c0.7,0,1.3-6.4,1.3-14.4
			l-0.4-287.2c0-5.6-0.4-10.1-0.9-10.1C99.3,417.3,98.9,421.8,98.9,427.4"/>
		<path clip-path="url(#heroSvg_SVGID_4_)" fill="#484746" d="M36.8,460.5l-34,22.6c-0.9,0.6-1.4,1.6-1,2.2c0.4,0.6,1.5,0.6,2.4-0.1
			L37.8,462c0.7-0.4,1-1.1,0.7-1.6C38.2,460,37.5,460,36.8,460.5"/>
		<path clip-path="url(#heroSvg_SVGID_4_)" fill="#484746" d="M97,482.4l-56.8-21.6c-1.6-0.6-3-0.5-3.3,0.2c-0.3,0.7,0.8,1.7,2.4,2.3
			l57,20.9c1.1,0.4,2.1,0.4,2.3-0.1C98.9,483.6,98.1,482.8,97,482.4"/>
		<path clip-path="url(#heroSvg_SVGID_4_)" fill="#484746" d="M84.2,479.5L53,501.2c-0.9,0.6-1.2,1.6-0.8,2.2c0.4,0.6,1.4,0.6,2.3,0
			L85.3,481c0.6-0.4,0.8-1.1,0.6-1.5C85.5,479,84.8,479,84.2,479.5"/>
		<path clip-path="url(#heroSvg_SVGID_4_)" fill="#484746" d="M49.7,507l0.8,95.1c0,2.6,0.6,4.7,1.4,4.7c0.7,0,1.3-2.1,1.2-4.8L51.6,507
			c0-1.8-0.4-3.3-1-3.3C50.1,503.7,49.7,505.2,49.7,507"/>
		<path clip-path="url(#heroSvg_SVGID_4_)" fill="#484746" d="M291.7,640.6c-0.1,16.3-0.7,32.5-0.8,48.8c0,1.3,0.6,2.4,1.3,2.4
			c0.7,0,1.3-1.1,1.3-2.4c-0.1-16.3,0.2-32.5,0-48.8c0-0.9-0.4-1.7-0.9-1.7C292.1,638.9,291.7,639.7,291.7,640.6"/>
		<path clip-path="url(#heroSvg_SVGID_4_)" fill="#484746" d="M328.1,665.9c-5.8,3.9-11.7,7.7-17.4,11.8c-5.6,4.1-11.4,8-17.3,11.8
			c-1,0.6-1.4,1.7-1,2.3c0.4,0.6,1.5,0.6,2.5-0.1c5.8-4,11.5-8,17.1-12.2c5.6-4.2,11.3-8.2,17.1-12.1c0.7-0.5,1-1.2,0.7-1.6
			C329.5,665.4,328.8,665.4,328.1,665.9"/>
		<path clip-path="url(#heroSvg_SVGID_4_)" fill="#484746" d="M279.9,599.2l-33.7,21.4c-0.9,0.6-1.4,1.6-1,2.2c0.4,0.6,1.5,0.6,2.4,0
			l33.3-22.1c0.7-0.4,1-1.1,0.7-1.5C281.3,598.8,280.5,598.8,279.9,599.2"/>
		<path clip-path="url(#heroSvg_SVGID_4_)" fill="#484746" d="M328.5,616.5c-0.1,15.9,0.2,31.7,0,47.6c0,1.3,0.6,2.4,1.3,2.4
			c0.7,0,1.3-1.1,1.3-2.4c-0.1-15.9-0.7-31.7-0.8-47.6c0-0.9-0.4-1.7-0.9-1.7C328.9,614.9,328.5,615.6,328.5,616.5"/>
		<path clip-path="url(#heroSvg_SVGID_4_)" fill="#484746" d="M327.7,615.1l-33.6,22.6c-0.9,0.6-1.3,1.6-0.9,2.2c0.4,0.6,1.5,0.6,2.4-0.1
			l33.2-23.2c0.6-0.4,0.9-1.1,0.7-1.6C329.1,614.7,328.3,614.7,327.7,615.1"/>
		<path clip-path="url(#heroSvg_SVGID_4_)" fill="#484746" d="M230.4,529.3c-5.7,3.8-11.4,7.6-17.2,11.2c-5.8,3.6-11.5,7.4-17.2,11.2
			c-0.9,0.6-1.4,1.6-1,2.2c0.4,0.6,1.5,0.6,2.4-0.1c5.6-3.9,11.2-7.8,16.9-11.5c5.7-3.7,11.4-7.6,17-11.5c0.7-0.4,1-1.1,0.7-1.6
			C231.9,528.8,231.1,528.9,230.4,529.3"/>
		<path clip-path="url(#heroSvg_SVGID_4_)" fill="#484746" d="M280.2,546c-15.3-5.3-30.4-11.1-45.7-16.4c-1.3-0.4-2.5-0.2-2.7,0.4
			c-0.2,0.7,0.6,1.6,1.9,2c15.3,5.1,30.6,10.6,45.9,15.7c0.9,0.3,1.7,0.2,1.9-0.3C281.7,546.9,281.1,546.3,280.2,546"/>
		<path clip-path="url(#heroSvg_SVGID_4_)" fill="#484746" d="M244.2,574.3c0,15.9-0.2,31.8-0.4,47.7c-0.2,15.9-0.4,31.8-0.2,47.8
			c0,2.6,0.7,4.8,1.4,4.8s1.3-2.2,1.2-4.8c-0.3-15.9-0.3-31.8-0.2-47.7c0.1-15.9,0.2-31.8,0-47.7c0-1.9-0.4-3.4-0.9-3.4
			C244.6,571,244.2,572.5,244.2,574.3"/>
		<path clip-path="url(#heroSvg_SVGID_4_)" fill="#484746" d="M193.6,500l-89-31.3c-2.5-0.9-4.6-1-4.9-0.3c-0.2,0.7,1.6,1.9,4,2.8l89.2,30.6
			c1.7,0.6,3.3,0.7,3.4,0.2C196.6,501.5,195.3,500.7,193.6,500"/>
		<path clip-path="url(#heroSvg_SVGID_4_)" fill="#484746" d="M228.6,478.5c-5.3,3.4-10.5,7-15.6,10.8c-5,3.8-10.1,7.4-15.4,10.8
			c-0.9,0.6-1.3,1.5-0.9,2.1c0.4,0.6,1.4,0.6,2.3,0c5.2-3.5,10.4-7.2,15.3-11.2c4.9-3.9,10-7.5,15.2-11c0.6-0.4,0.9-1.1,0.6-1.5
			C230,478.1,229.2,478.1,228.6,478.5"/>
		<path clip-path="url(#heroSvg_SVGID_4_)" fill="#484746" d="M230.4,430.9c0.1,15.8,0.1,31.5,0,47.3c-0.1,15.8-0.3,31.5-0.2,47.3
			c0,2.6,0.6,4.7,1.3,4.7c0.7,0,1.3-2.1,1.3-4.7c-0.2-15.8-0.2-31.5-0.2-47.3c0-15.8-0.2-31.5-0.4-47.3c0-1.8-0.4-3.3-0.9-3.3
			C230.8,427.5,230.4,429,230.4,430.9"/>
		<path clip-path="url(#heroSvg_SVGID_4_)" fill="#484746" d="M193,449l-89-31.3c-2.5-0.9-4.6-1-4.9-0.3c-0.2,0.7,1.6,1.9,4,2.8l89.2,30.6
			c1.7,0.6,3.3,0.7,3.4,0.2C196,450.5,194.7,449.6,193,449"/>
		<path clip-path="url(#heroSvg_SVGID_4_)" fill="#484746" d="M228.6,427.8c-5.3,3.4-10.6,7-15.8,10.7c-5.2,3.7-10.4,7.2-15.7,10.6
			c-0.9,0.6-1.3,1.5-0.9,2.1c0.4,0.6,1.4,0.6,2.3,0c5.3-3.5,10.5-7.2,15.6-11c5.1-3.8,10.2-7.4,15.5-10.9c0.6-0.4,0.9-1.1,0.6-1.5
			C230,427.4,229.2,427.4,228.6,427.8"/>
		<path clip-path="url(#heroSvg_SVGID_4_)" fill="#484746" d="M133.3,393.8c-11,7-21.6,14.5-32.5,21.4c-0.9,0.6-1.3,1.6-0.9,2.2
			c0.4,0.6,1.4,0.6,2.3,0c10.9-7.2,21.3-14.9,32.1-22c0.6-0.4,0.9-1.1,0.6-1.5C134.7,393.4,134,393.4,133.3,393.8"/>
		<path clip-path="url(#heroSvg_SVGID_4_)" fill="#484746" d="M180.7,410.4c-5.3,3.4-10.5,6.9-15.6,10.5c-5.1,3.6-10.2,7.1-15.5,10.5
			c-0.9,0.6-1.2,1.5-0.9,2.1c0.4,0.6,1.4,0.6,2.3,0.1c5.2-3.5,10.3-7.1,15.3-10.8c5-3.7,10.1-7.3,15.3-10.8c0.6-0.4,0.9-1.1,0.6-1.5
			C182,410,181.3,410,180.7,410.4"/>
		<path clip-path="url(#heroSvg_SVGID_4_)" fill="#484746" d="M228.7,425.6l-89-31.3c-2.5-0.9-4.6-1-4.9-0.3c-0.2,0.7,1.6,1.9,4,2.8
			l89.2,30.6c1.7,0.6,3.3,0.7,3.4,0.2C231.7,427,230.4,426.2,228.7,425.6"/>
		<path clip-path="url(#heroSvg_SVGID_4_)" fill="#484746" d="M327.7,614.2l-43.6-15.4c-1.2-0.4-2.4-0.2-2.6,0.5c-0.2,0.7,0.6,1.6,1.8,2
			l43.8,14.7c0.8,0.3,1.7,0.1,1.8-0.3C329.1,615.1,328.6,614.4,327.7,614.2"/>
		<path clip-path="url(#heroSvg_SVGID_4_)" fill="#484746" d="M279.9,547.4l-33.7,21.4c-0.9,0.6-1.4,1.6-1,2.2c0.4,0.6,1.5,0.6,2.4,0
			l33.3-22.1c0.7-0.4,1-1.1,0.7-1.5C281.3,547,280.5,547,279.9,547.4"/>
		<path clip-path="url(#heroSvg_SVGID_4_)" fill="#484746" d="M280.1,549.3l0.4,47.8c0,1.3,0.6,2.4,1.3,2.4c0.7,0,1.3-1.1,1.3-2.4l-1.2-47.8
			c0-0.9-0.4-1.7-0.9-1.7C280.4,547.6,280,548.4,280.1,549.3"/>
		<path clip-path="url(#heroSvg_SVGID_4_)" fill="#B1BCCD" d="M602.5,577.2c-3.2,1.8-7.2,2.5-10.9,1.9c-3.7-0.5-7.3-2.2-9.7-5.1
			c-4.8-5.6-5.2-14.8-0.7-20.6c2.2-2.9,5.6-4.9,9.2-5.7c3.6-0.8,7.5-0.4,10.8,1.2c1.6,0.8,3.1,1.9,4.3,3.2c1.2,1.4,2.2,2.9,2.9,4.6
			c1.4,3.4,1.7,7.3,0.8,10.8c-0.3,1.2-0.6,2.2-0.7,3c-0.2,0.8-0.1,1.4,0.2,1.6c0.3,0.2,0.8-0.1,1.5-0.8c0.6-0.7,1.2-1.9,1.6-3.2
			c1-4.1,0.6-8.5-1-12.4c-0.8-1.9-1.9-3.8-3.4-5.3c-1.4-1.6-3.2-2.9-5.1-3.8c-3.8-1.8-8.2-2.2-12.3-1.3c-4.1,0.9-7.9,3.2-10.5,6.6
			c-2.6,3.4-3.7,7.7-3.5,11.8c0.2,4.2,1.7,8.3,4.5,11.5c2.8,3.2,6.8,5.1,10.9,5.6c4.1,0.6,8.4-0.2,12-2.2c1.7-1,2.6-2.4,2.2-2.7
			C605.3,575.7,604,576.4,602.5,577.2"/>
		<path clip-path="url(#heroSvg_SVGID_4_)" fill="#B1BCCD" d="M650,553.9c2.3-0.9,4.3-2.5,5.7-4.5c1.4-2,2.1-4.6,1.8-7.1
			c-0.2-2.5-1.3-4.8-2.9-6.7c-1.6-1.9-4-3.2-6.4-3.6c-2.5-0.4-5-0.1-7.3,1c-2.3,1.1-4.1,3-5.2,5.3c-1.1,2.3-1.2,5.1-0.3,7.5
			c0.9,2.4,2.5,4.4,4.5,5.9c1.3,1,2.8,1.1,3,0.6c0.2-0.5-0.7-1.4-1.8-2.2c-1.7-1.3-3.1-3-3.9-4.9c-0.7-2-0.7-4.1,0.2-6
			c0.8-1.9,2.4-3.5,4.3-4.5c1.9-1,4.1-1.3,6.2-1c2.1,0.3,4.1,1.4,5.5,3c1.4,1.6,2.3,3.7,2.6,5.8c0.6,4.3-2.4,8.6-6.4,10.1
			c-0.9,0.4-1.7,0.8-1.6,1.2C648,554.2,649,554.3,650,553.9"/>
		<path clip-path="url(#heroSvg_SVGID_4_)" fill="#B1BCCD" d="M667.8,586.4c2.7,3,6.6,4.9,10.6,5.5c4,0.6,8.3-0.5,11.6-2.8
			c3.4-2.3,6-5.7,7.2-9.6c1.3-3.9,1-8.2-0.5-12c-1.5-3.8-4.1-7.1-7.7-9.3c-3.5-2.1-7.7-3-11.8-2.5c-4,0.5-8.1,2.4-10.7,5.6
			c-2.7,3.1-4.2,7.2-4.1,11.4c0,1.4,0.4,2.6,0.8,3.4c0.4,0.8,0.8,1.2,1.1,1.1c0.3-0.1,0.3-0.7,0.3-1.5c0-0.8-0.1-1.9-0.1-3.1
			c-0.1-3.6,1.3-7.3,3.6-10.1c2.3-2.8,5.8-4.5,9.5-5c3.7-0.5,7.5,0.3,10.7,2.2c3.2,1.9,5.6,4.9,7,8.4c1.4,3.5,1.6,7.4,0.5,10.9
			c-1.1,3.5-3.5,6.7-6.6,8.8c-3.1,2.1-6.9,3.1-10.6,2.6c-3.7-0.5-7.2-2.2-9.8-5c-1.2-1.3-2.1-2.3-2.5-2.1
			C666,583.4,666.5,585,667.8,586.4"/>
		<path clip-path="url(#heroSvg_SVGID_4_)" fill="#B1BCCD" d="M655.8,615.3c-0.2,3.2,0.7,6.4,2.4,9.1c1.7,2.7,4.3,4.9,7.4,5.9
			c6.2,2,13.4-0.6,17-6.1c1.7-2.8,2.4-6.1,2-9.3c-0.4-3.2-1.8-6.3-4-8.7c-2.2-2.4-5.4-3.8-8.7-4.1c-3.2-0.3-6.6,0.4-9.4,2.1
			c-0.9,0.6-1.6,1.3-2,1.9c-0.4,0.6-0.5,1.1-0.2,1.3c0.5,0.4,1.7-0.6,3.3-1.5c4.7-3,11.7-2.6,15.6,1.6c3.9,4,5,11,1.9,15.8
			c-3,4.9-9.6,7.2-15,5.5c-5.5-1.7-9.2-7.7-8.8-13.4c0.1-1.3,0.1-2.5-0.3-2.6C656.5,612.7,655.9,613.8,655.8,615.3"/>
		<path clip-path="url(#heroSvg_SVGID_4_)" fill="#B1BCCD" d="M623.3,618c2.1,3.9,2.7,8.5,1.9,12.9c-0.7,4.3-2.8,8.5-6.2,11.3
			c-6.8,5.6-17.5,6-24.5,0.6c-3.5-2.6-5.8-6.6-6.8-10.9c-1-4.3-0.6-8.9,1.2-12.9c0.9-2,2.2-3.8,3.8-5.3c1.6-1.5,3.4-2.7,5.4-3.6
			c4-1.8,8.6-2.3,12.8-1.3c1.4,0.3,2.7,0.7,3.6,0.9c0.9,0.3,1.6,0.3,1.7,0.1c0.1-0.2-0.3-0.7-1.1-1.4c-0.9-0.6-2.2-1.2-3.8-1.6
			c-4.7-1-9.7-0.4-14,1.5c-2.2,1-4.2,2.3-6,4c-1.7,1.7-3.2,3.7-4.1,5.9c-2,4.4-2.4,9.4-1.3,14c1.1,4.6,3.7,9,7.5,11.9
			c3.8,2.9,8.7,4.3,13.4,4.1c4.7-0.2,9.5-1.8,13.1-4.9c3.7-3.1,6-7.6,6.7-12.3c0.8-4.7,0.1-9.6-2.1-13.8c-1.1-2-2.5-3.1-2.8-2.9
			C621.4,614.8,622.3,616.2,623.3,618"/>
		<path clip-path="url(#heroSvg_SVGID_4_)" fill="#B1BCCD" d="M633,592.9l-26.1,32c-0.7,0.9-0.9,1.9-0.5,2.2c0.4,0.3,1.4-0.1,2.1-1
			l25.6-32.4c0.5-0.6,0.7-1.3,0.4-1.6C634.1,592,633.5,592.3,633,592.9"/>
		<path clip-path="url(#heroSvg_SVGID_4_)" fill="#B1BCCD" d="M631.7,591.5L595.4,563c-1-0.8-2.1-1.1-2.4-0.6c-0.3,0.4,0.2,1.4,1.2,2.2
			l36.7,28c0.7,0.5,1.5,0.7,1.7,0.4C632.8,592.7,632.4,592,631.7,591.5"/>
		<path clip-path="url(#heroSvg_SVGID_4_)" fill="#B1BCCD" d="M646.5,543.9L633,589.6c-0.4,1.3-0.2,2.4,0.3,2.6c0.5,0.2,1.3-0.7,1.6-2
			l12.9-45.8c0.3-0.9,0.2-1.7-0.2-1.8C647.3,542.4,646.7,543.1,646.5,543.9"/>
		<path clip-path="url(#heroSvg_SVGID_4_)" fill="#B1BCCD" d="M679.1,573.8l-44.7,17.6c-1.2,0.5-2.1,1.3-1.9,1.8c0.2,0.5,1.4,0.5,2.6,0
			l44.5-18.1c0.9-0.3,1.5-0.9,1.3-1.3C680.8,573.5,680,573.5,679.1,573.8"/>
		<path clip-path="url(#heroSvg_SVGID_4_)" fill="#B1BCCD" d="M670.7,616.2c-12-6.9-23.5-14.7-34.5-23.1c-0.9-0.7-1.9-0.9-2.3-0.5
			c-0.3,0.4,0.1,1.4,1.1,2.1c11.2,8.3,22.9,16,35,22.8c0.7,0.4,1.4,0.5,1.6,0.1C671.9,617.2,671.4,616.6,670.7,616.2"/>
		<path clip-path="url(#heroSvg_SVGID_4_)" fill="#B1BCCD" d="M660.7,642c-2.4,4.2-7,6.9-11.7,8c-4.8,1.1-9.9,0.9-15,0.5
			c-0.8-0.1-1.6,0.5-1.6,1.2c0,0.7,0.6,1.3,1.5,1.4c5.1,0.3,10.5,0.4,15.7-1c2.6-0.7,5.1-1.8,7.3-3.3c2.2-1.5,4.2-3.5,5.5-6
			c0.3-0.6,0.1-1.2-0.3-1.4C661.5,641.3,660.9,641.6,660.7,642"/>
		<path clip-path="url(#heroSvg_SVGID_4_)" fill="#B1BCCD" d="M661,641.3l-4.5,1.5c-0.1,0.1,0,0.6,0.3,1.3c0.3,0.7,0.6,1.2,0.7,1.1l4.2-2.2
			c0.1,0,0-0.4-0.2-0.9C661.3,641.6,661.1,641.3,661,641.3"/>
		<path clip-path="url(#heroSvg_SVGID_4_)" fill="#B1BCCD" d="M662.9,647.6l-0.2-5.2c0-0.1-0.6-0.2-1.3-0.1c-0.7,0.1-1.3,0.3-1.3,0.4l1,5.1
			c0,0.1,0.4,0.1,0.9,0.1C662.5,647.8,662.9,647.7,662.9,647.6"/>
		<path clip-path="url(#heroSvg_SVGID_4_)" fill="#B1BCCD" d="M662.5,646.6l-3.8-3.8c-0.1-0.1-0.6,0.3-1,0.8c-0.5,0.5-0.8,1.1-0.6,1.2
			l4.3,3.2c0.1,0.1,0.4-0.2,0.7-0.6S662.5,646.7,662.5,646.6"/>
		<path clip-path="url(#heroSvg_SVGID_4_)" fill="#B1BCCD" d="M600.1,538.7c1.9-4.4,6.2-7.6,10.8-9.2c4.7-1.6,9.8-1.9,14.9-2.1
			c0.8,0,1.5-0.6,1.5-1.4c0-0.7-0.7-1.3-1.6-1.2c-5.1,0.3-10.5,0.7-15.5,2.6c-2.5,1-4.9,2.3-6.9,4.1c-2,1.8-3.8,4-4.8,6.5
			c-0.2,0.6,0,1.2,0.5,1.4C599.4,539.5,599.9,539.2,600.1,538.7"/>
		<path clip-path="url(#heroSvg_SVGID_4_)" fill="#B1BCCD" d="M599.9,539.5l4.3-2c0.1-0.1-0.1-0.6-0.4-1.2c-0.4-0.6-0.7-1.1-0.8-1l-3.9,2.7
			c-0.1,0,0.1,0.4,0.3,0.9C599.6,539.2,599.8,539.5,599.9,539.5"/>
		<path clip-path="url(#heroSvg_SVGID_4_)" fill="#B1BCCD" d="M597.4,533.4l0.7,5.2c0,0.1,0.6,0.1,1.3,0c0.7-0.2,1.2-0.4,1.2-0.5l-1.5-5
			c0-0.1-0.4-0.1-0.9,0C597.7,533.2,597.3,533.3,597.4,533.4"/>
		<path clip-path="url(#heroSvg_SVGID_4_)" fill="#B1BCCD" d="M597.9,534.3l4.2,3.3c0.1,0.1,0.5-0.3,1-0.9c0.4-0.6,0.6-1.1,0.5-1.2l-4.7-2.7
			c-0.1-0.1-0.4,0.2-0.7,0.6C598,533.9,597.8,534.3,597.9,534.3"/>
		<path clip-path="url(#heroSvg_SVGID_4_)" fill="#F5F8FF" d="M786.7,406.5c1.1,1,2.6,1.5,4,2.3c4.7,2.6,7.1,8,8.1,13.2
			c1,5.2,1,10.7,2.3,15.8c0.2,0.6,0.3,1.2,0.8,1.7c0.6,0.6,1.6,0.7,2.5,0.8c2,0.1,4.4,0,5.6-1.6c0.8-1.1,0.8-2.6,0.6-3.9
			c-0.4-3.7-1.6-7.2-2.8-10.7c-0.8-2.2-1.5-4.4-2.3-6.6c-1.9-5.6-4.2-11.6-9.2-14.8c-2-1.3-5.2-2.9-7.6-2.2
			C786,401.3,784.2,404.2,786.7,406.5"/>
		<path clip-path="url(#heroSvg_SVGID_4_)" fill="#FFFFFF" d="M730.5,475.9c-2.2,1.5-2.9,5-1,6.9c0.6,0.6,1.5,1.2,1.5,2c0,1.3-1.8,1.6-3,2.1
			c-1.7,0.8-2.5,3-1.7,4.7c0.4,0.9,1.3,1.8,1.1,2.8c-0.3,1.4-2.3,1.7-3.3,2.7c-1.1,1.1-0.9,3.1,0.1,4.4c1,1.2,2.6,1.9,4.1,2.5
			c1.5,0.6,3.1,1.2,4.2,2.3c0.8,0.8,1.3,1.9,1.7,2.9c1.7,3.9,2.7,8.1,4.8,11.8c3.7,6.8,10.8,11.9,18.6,12.5c1.3,0.1,2.5,0.1,3.8-0.2
			c1.3-0.3,2.5-0.9,3.7-1.6c7.5-4.3,13.4-11.2,16.5-19.3c0.5-1.4,1.1-3.1,2.5-3.7c1.3-0.6,2.8-0.1,4.2-0.3c1.8-0.3,3.4-2,3.5-3.8
			c0.1-1.9-1.2-3.7-3-4.2c0.2-1.4,1.9-1.9,2.5-3.2c0.8-1.6-0.6-3.4-2.1-4.4c-0.8-0.6-1.8-1.2-1.7-2.2c0-0.8,0.7-1.4,1.3-1.9
			c1.7-1.5,3.3-3.9,2.2-5.9c-0.8-1.4-2.7-1.8-4.3-2.1c-15.5-2.4-31.3-4.8-47.1-5.5C736.6,475.1,733.1,474.1,730.5,475.9"/>
		<path clip-path="url(#heroSvg_SVGID_4_)" fill="#D2F4F7" d="M761.5,530.6c5.6-6.4,9.5-14.4,11-22.8c1.7-0.4,3.1-1.9,3.3-3.6
			c0.2-1.7-0.7-3.5-2.2-4.4c2-0.7,3.5-2.6,3.7-4.7c0.2-2.1-0.8-4.3-2.6-5.4c2.2-0.6,3.9-2.5,4.4-4.7c0.4-2.2-0.6-4.6-2.4-6
			c3.4,0.6,6.9,1.3,10.3,1.9c1,0.2,2,0.4,2.8,1.1c1.3,1.1,1.4,3.3,0.5,4.9c-0.8,1.6-2.3,2.6-3.7,3.7c2.2,0,4.3,1.7,4.8,3.8
			c0.4,2.2-0.9,4.6-2.9,5.4c1.7,0.5,2.9,2.4,2.8,4.3c-0.1,1.8-1.4,3.4-3.1,4.2c-1.6,0.7-3.5,0.8-4.8,2c-0.5,0.5-0.9,1.1-1.2,1.7
			c-1.8,3.1-3.6,6.1-5.3,9.2c-1,1.7-2,3.5-3.4,5c-2.3,2.4-5.3,3.9-8.3,5.3c-2.2,1.1-5.1,2.6-7.7,2.4
			C759,533,760.3,531.9,761.5,530.6"/>
		<path clip-path="url(#heroSvg_SVGID_4_)" fill="#57CED7" d="M768.8,388.3c-27.5-2.2-51.4,17-53.4,42.8c-1.3,16.9,6,34.1,19,44.5l51.5,4
			c15.8-8.1,27.7-23.8,29-40.7C816.8,413.1,796.2,390.5,768.8,388.3 M790.7,406.1c-0.5-0.3-0.4-1.5,0.2-2.6c0.6-1.1,1.7-1.6,2.3-1.2
			c7.4,5.2,12.1,13.6,12.9,22.4c0.1,0.5-0.6,1-1.5,1c-0.9,0.1-1.6-0.3-1.7-0.7C801.9,417.3,797.2,410.2,790.7,406.1 M805.5,436.3
			c-0.9,0.1-1.6,0.1-1.6,0l-1.3-5.9c0-0.2,1-0.4,2.2-0.5c1.3-0.1,2.3-0.1,2.3,0.1l0,6.1C807.1,436,806.4,436.2,805.5,436.3"/>
		<path clip-path="url(#heroSvg_SVGID_4_)" fill="#484746" d="M777.7,470.5c1.7-4.4,4.3-8.4,7.1-12.2c2.8-3.9,5.8-7.7,8.2-12
			c2.4-4.2,4.2-9,4.5-14c0.1-2.5-0.1-5-0.9-7.5c-0.8-2.4-2.1-4.7-3.9-6.5c-3.7-3.6-8.8-5.4-13.9-5.3c-2.5,0.1-5.1,0.6-7.4,1.6
			c-2.3,1-4.5,2.4-6.3,4.1c-3.7,3.4-6.3,7.8-7.8,12.6c-0.7,2.3-1.2,5-0.8,7.6c0.2,1.3,0.5,2.6,1.2,3.8c0.6,1.2,1.7,2.3,3.1,2.9
			c1.3,0.6,2.9,0.7,4.2,0.4c1.4-0.3,2.6-1,3.6-1.9c1-0.9,1.9-2.1,2.4-3.3c0.5-1.2,0.8-2.5,1-3.8c0.3-2.6,0-5.1-0.5-7.5
			c-0.5-2.4-1.3-4.8-2.4-7.1c-2.2-4.5-5.8-8.5-10.5-10.6c-4.6-2.1-10.1-2.6-15-0.5c-2.4,1-4.5,2.7-6.2,4.6c-1.7,2-2.9,4.2-3.8,6.6
			c-0.9,2.4-1.4,4.9-1.6,7.4c-0.2,2.5,0,5,0.4,7.5c0.8,4.9,2.4,9.6,4.1,14.1l5.2,13.5c2.3,5.9,4.7,10.6,5.4,10.3
			c0.7-0.3-0.6-5.3-2.9-11.2l-5.2-13.4c-1.7-4.5-3.3-9-4-13.6c-0.4-2.3-0.5-4.6-0.4-6.9c0.2-2.3,0.6-4.5,1.4-6.7
			c0.8-2.1,1.9-4.1,3.4-5.9c1.5-1.7,3.2-3.1,5.3-4c4.1-1.8,8.9-1.4,13,0.5c4.1,1.9,7.4,5.4,9.4,9.5c1,2.1,1.8,4.3,2.2,6.5
			c0.5,2.3,0.7,4.6,0.5,6.8c-0.2,2.2-1,4.3-2.6,5.7c-1.5,1.4-3.8,2-5.5,1.2c-1.8-0.8-2.7-2.8-3-5c-0.1-1.1-0.1-2.2,0-3.3
			c0.1-1.1,0.4-2.2,0.7-3.3c1.3-4.4,3.7-8.6,7.1-11.7c3.4-3.1,7.7-5.1,12.3-5.2c4.5-0.1,9.2,1.5,12.4,4.6c1.6,1.6,2.8,3.5,3.5,5.7
			c0.7,2.1,0.9,4.5,0.9,6.8c-0.2,4.6-1.8,9.1-4.2,13.2c-2.3,4.1-5.2,7.9-8,11.8c-2.8,3.9-5.5,8-7.3,12.7c-0.8,2.1-1.2,4.2-1.3,5.7
			c-0.1,1.5,0.1,2.5,0.4,2.5c0.3,0,0.5-0.9,0.9-2.3C776.4,474.4,776.9,472.6,777.7,470.5"/>
		<path clip-path="url(#heroSvg_SVGID_4_)" fill="#484746" d="M738.2,476.6l31.4,3.2l15.7,1.6c1.3,0.1,2.5,0.3,3.5,0.7
			c0.9,0.5,1.5,1.2,1.5,2.2c0,1-0.4,2-1.1,2.9c-0.4,0.4-0.8,0.7-1.2,1c-0.5,0.3-1,0.5-1.6,0.6c-2.3,0.6-4.9,0.2-7.5,0l-7.9-0.7
			l-15.7-1.3l-15.7-1.3c-2.6-0.2-5.1-0.5-7.1-1.6c-0.9-0.6-1.8-1.4-2.2-2.3c-0.2-0.5-0.4-0.9-0.4-1.4c0-0.2,0-0.5,0-0.7
			c0-0.2,0.1-0.4,0.2-0.6c0.4-1.1,1.5-1.9,2.3-2.2c0.8-0.3,1.5-0.2,1.7-0.5c0.1-0.1,0-0.4-0.3-0.7c-0.3-0.3-0.9-0.6-1.6-0.6
			c-1.5-0.1-3.6,0.8-4.5,3c-0.7,1.7-0.3,3.5,0.4,4.9c0.8,1.4,1.9,2.5,3.2,3.3c2.7,1.5,5.6,1.7,8.2,1.9l15.7,1.2l15.7,1.2l7.9,0.6
			c2.6,0.2,5.3,0.6,8.2-0.1c0.7-0.2,1.4-0.5,2.1-0.8c0.7-0.4,1.3-0.9,1.8-1.5c1-1.2,1.7-2.7,1.6-4.4c0-0.8-0.3-1.7-0.8-2.4
			c-0.5-0.7-1.2-1.2-1.9-1.6c-1.5-0.7-2.9-0.8-4.2-0.9l-15.7-1.5l-31.4-3c-2.4-0.2-4.5,0-4.5,0.5
			C733.8,475.8,735.8,476.4,738.2,476.6"/>
		<path clip-path="url(#heroSvg_SVGID_4_)" fill="#484746" d="M712.3,477.1l10-5.6c0.3-0.2,0.2-0.8-0.2-1.4c-0.4-0.6-0.9-1-1.2-0.8l-9.7,6.3
			c-0.2,0.1-0.1,0.6,0.1,1C711.7,476.9,712.1,477.2,712.3,477.1"/>
		<path clip-path="url(#heroSvg_SVGID_4_)" fill="#484746" d="M701.5,456.2l10.7-3.5c0.3-0.1,0.3-0.7,0.1-1.4c-0.2-0.7-0.7-1.1-1-1
			l-10.4,4.2c-0.2,0.1-0.2,0.5-0.1,1C701,455.9,701.3,456.3,701.5,456.2"/>
		<path clip-path="url(#heroSvg_SVGID_4_)" fill="#484746" d="M697,429.4l10.8,2.1c0.3,0,0.6-0.5,0.8-1.2c0.1-0.7,0-1.3-0.3-1.4l-11-1.4
			c-0.2,0-0.4,0.3-0.5,0.8C696.6,428.9,696.8,429.4,697,429.4"/>
		<path clip-path="url(#heroSvg_SVGID_4_)" fill="#484746" d="M703,402.8l11,6.6c0.3,0.2,0.8-0.2,1.2-0.8c0.4-0.6,0.4-1.3,0.1-1.4l-11.4-6
			c-0.2-0.1-0.6,0.1-0.8,0.6C702.8,402.2,702.8,402.6,703,402.8"/>
		<path clip-path="url(#heroSvg_SVGID_4_)" fill="#484746" d="M719.8,382.4l7.4,9.6c0.2,0.3,0.8,0.1,1.4-0.4c0.6-0.5,0.8-1,0.6-1.3l-8-9.1
			c-0.2-0.2-0.6-0.1-1,0.3C719.9,381.8,719.7,382.2,719.8,382.4"/>
		<path clip-path="url(#heroSvg_SVGID_4_)" fill="#484746" d="M743.5,369.5l2.8,11.4c0.1,0.3,0.7,0.4,1.4,0.2c0.7-0.2,1.2-0.6,1.1-0.9
			l-3.5-11.2c-0.1-0.2-0.5-0.3-1-0.2C743.8,369,743.5,369.3,743.5,369.5"/>
		<path clip-path="url(#heroSvg_SVGID_4_)" fill="#484746" d="M769,366.3l-1.6,12.6c0,0.3,0.5,0.7,1.2,0.8c0.7,0.1,1.3-0.2,1.4-0.5l0.8-12.7
			c0-0.2-0.4-0.5-0.9-0.5S769,366.1,769,366.3"/>
		<path clip-path="url(#heroSvg_SVGID_4_)" fill="#484746" d="M795.4,372.8l-6.5,10.9c-0.2,0.3,0.2,0.8,0.8,1.2c0.6,0.3,1.3,0.4,1.4,0.1
			l5.9-11.3c0.1-0.2-0.1-0.6-0.6-0.8C795.9,372.6,795.5,372.6,795.4,372.8"/>
		<path clip-path="url(#heroSvg_SVGID_4_)" fill="#484746" d="M817.5,389.8c-4.2,1.7-8,4.6-10.7,8.2c-0.2,0.3,0.1,0.9,0.7,1.3
			c0.6,0.4,1.2,0.5,1.4,0.2c2.3-3.4,5.6-6.3,9.4-8.1c0.2-0.1,0.2-0.6,0.1-1C818.1,390,817.7,389.7,817.5,389.8"/>
		<path clip-path="url(#heroSvg_SVGID_4_)" fill="#484746" d="M829.8,411.7l-11.1,3.3c-0.3,0.1-0.4,0.7-0.1,1.4c0.2,0.7,0.7,1.1,1,1
			l10.9-4.1c0.2-0.1,0.3-0.5,0.1-1C830.3,412,830,411.7,829.8,411.7"/>
		<path clip-path="url(#heroSvg_SVGID_4_)" fill="#484746" d="M833.9,438.5l-13.5-1.4c-0.4,0-0.7,0.5-0.8,1.2c-0.1,0.7,0.2,1.3,0.6,1.3
			l13.5,0.7c0.3,0,0.5-0.4,0.5-0.9C834.4,439,834.2,438.5,833.9,438.5"/>
		<path clip-path="url(#heroSvg_SVGID_4_)" fill="#484746" d="M825.5,463.6l-9.5-5.7c-0.3-0.1-0.8,0.2-1.1,0.9c-0.3,0.6-0.4,1.3-0.1,1.4
			l9.9,5.1c0.2,0.1,0.5-0.2,0.8-0.6C825.6,464.2,825.7,463.7,825.5,463.6"/>
		<path clip-path="url(#heroSvg_SVGID_4_)" fill="#484746" d="M810.7,483.5l-7.6-8c-0.2-0.2-0.8,0-1.3,0.5c-0.5,0.5-0.7,1.1-0.5,1.3l8.1,7.5
			c0.2,0.1,0.6,0,0.9-0.4C810.7,484.1,810.9,483.6,810.7,483.5"/>
		<path clip-path="url(#heroSvg_SVGID_4_)" fill="#484746" d="M786.1,491.8c1.6,0.3,3.1,0.9,3.9,2c0.4,0.5,0.6,1.2,0.5,1.8
			c-0.1,0.6-0.3,1.3-0.8,1.8c-0.9,1.1-2.3,1.8-3.9,1.9c-1.6,0.2-3.2,0-5-0.2l-20.7-2.2l-20.7-2.2l-5.2-0.5c-1.7-0.2-3.4-0.3-4.8-0.9
			c-1.4-0.5-2.3-1.5-2.4-2.7c-0.1-0.6,0-1.3,0.3-1.8c0.3-0.5,0.7-0.9,1.2-1.2c0.7-0.3,1.5-0.5,2.1-0.6c0.6-0.1,1.1-0.1,1.3-0.5
			c0.2-0.3-0.1-0.9-0.9-1.3c-0.8-0.4-2.3-0.6-3.6,0.1c-1,0.5-1.9,1.4-2.4,2.4c-0.5,1-0.7,2.1-0.5,3.3c0.1,1.1,0.7,2.2,1.4,3
			c0.8,0.8,1.7,1.4,2.6,1.7c1.9,0.7,3.7,0.8,5.4,1l5.2,0.5l20.7,2l20.7,2c1.7,0.2,3.5,0.4,5.4,0.1c0.9-0.1,1.9-0.3,2.8-0.8
			c0.9-0.5,1.7-1.1,2.3-1.9c0.6-0.8,1.1-1.8,1.2-2.9c0.1-1.1-0.2-2.2-0.9-3.1c-0.6-0.9-1.5-1.5-2.4-1.9c-0.9-0.4-1.8-0.7-2.7-0.8
			c-1.7-0.3-3.1,0.1-3.1,0.6C783.4,491.1,784.6,491.5,786.1,491.8"/>
		<path clip-path="url(#heroSvg_SVGID_4_)" fill="#484746" d="M789.4,501.7c0.5,0.3,1,0.8,1.2,1.4c0.2,0.5,0.1,1.2-0.1,1.8
			c-0.5,1.2-1.7,2.2-3.1,2.6c-1.4,0.4-3,0.4-4.6,0.3l-5-0.4l-19.9-1.6l-19.9-1.6l-5-0.4c-1.7-0.1-3.3-0.2-4.7-0.6
			c-1.4-0.4-2.6-1.1-3.3-2.2c-0.3-0.5-0.5-1.1-0.5-1.6c0-0.3,0.1-0.5,0.2-0.7c0.1-0.2,0.3-0.4,0.5-0.6c0.5-0.5,1.1-0.7,1.6-0.9
			c0.5-0.2,1-0.1,1.2-0.4c0.2-0.2,0.1-1-0.9-1.4c-1-0.5-2.5-0.3-3.6,0.7c-0.4,0.4-0.8,0.8-1.1,1.4c-0.3,0.5-0.4,1.2-0.4,1.7
			c0,1.1,0.3,2.2,0.9,3.1c0.6,0.9,1.3,1.6,2.1,2.2c0.9,0.6,1.7,0.9,2.6,1.2c1.8,0.5,3.5,0.5,5.2,0.7l5,0.3l19.9,1.4l19.9,1.4l5,0.3
			c1.7,0.1,3.5,0.1,5.3-0.5c1.8-0.6,3.4-1.8,4.2-3.7c0.4-0.9,0.5-2,0.1-3.1c-0.4-1-1.1-1.8-2-2.4c-0.8-0.5-1.9-0.5-2.5-0.2
			c-0.6,0.3-0.8,0.7-0.7,0.9c0.1,0.2,0.5,0.3,0.9,0.4C788.5,501.3,788.9,501.4,789.4,501.7"/>
		<path clip-path="url(#heroSvg_SVGID_4_)" fill="#484746" d="M781.2,511.3c-2.5,5.4-5.3,10.8-9.5,14.9c-2.1,2-4.5,3.7-7.1,4.8
			c-2.6,1.1-5.5,1.5-8.3,1.1c-2.8-0.3-5.5-1.5-7.9-3.1c-2.4-1.6-4.5-3.6-6.3-5.9c-3.5-4.6-5.8-10.2-7.7-15.8c-0.7-1.9-1.7-3.2-2.4-3
			c-0.7,0.2-0.7,2-0.1,3.9c2,5.7,4.4,11.5,8.2,16.5c1.9,2.5,4.3,4.6,6.9,6.3c2.7,1.7,5.7,2.9,8.9,3.3c3.2,0.4,6.5-0.1,9.4-1.4
			c2.9-1.2,5.5-3.1,7.7-5.3c4.4-4.5,7.2-10.1,9.7-15.6c0.6-1.3,0.7-2.5,0.2-2.7C782.6,509.1,781.7,510,781.2,511.3"/>
		<path clip-path="url(#heroSvg_SVGID_4_)" fill="#D2F4F7" d="M534,215.7c-2.1-5.9-4.1-11.8-7.6-17c-0.9-1.4-2-2.9-1.7-4.6
			c0.3-1.8,2.2-2.9,3.9-3.7c8.9-4.3,17.9-8.6,26.9-12.7c0.6-0.2,1.2-0.5,1.8-0.4c0.9,0.1,1.5,0.9,2.1,1.7c0.7,0.9,1.4,1.9,1.4,3.1
			c0.1,2.1-2.1,3.6-4,4.5c-3.5,1.6-7.1,2.6-10.6,4c-3.5,1.4-7,3.3-9.4,6.2c-0.3,0.3-0.6,0.7-0.7,1.1c-0.3,0.6-0.2,1.3-0.2,2
			c0,1.1,0,2.1,0.4,3.1c0.5,1.4,1.5,2.5,2.2,3.8c0.8,1.6,1.1,3.4,1.5,5.2c1.1,3.8,3.4,7.2,4.8,10.9c0.2,0.5,0.4,1.1,0.1,1.6
			c-0.2,0.3-0.5,0.5-0.9,0.7c-1.3,0.6-3.1,1.9-4.5,2.2c-1.5,0.2-1.5-0.9-2-2.2c-0.5-1.6-1.1-3.1-1.6-4.7
			C535.2,219,534,217,534,215.7"/>
		<path clip-path="url(#heroSvg_SVGID_4_)" fill="#D2F4F7" d="M595.3,230.9c1.7-0.9,3.3-1.8,5.1-2.5c2.5-1,5.2-1.6,7.3-3.4
			c0.4-0.3,0.8-0.7,1-1.2c0.4-0.9,0-1.9-0.4-2.9c-3-7.5-6.1-15-9.1-22.5c-0.1-0.3-0.3-0.7-0.2-1c0.1-0.3,0.3-0.5,0.5-0.8
			c1.1-1.1,2.5-2,3.9-2.5c0.4-0.2,0.8-0.3,1.2-0.2c0.4,0.1,0.7,0.3,1,0.5c1,0.9,1.6,2.2,2.2,3.4c4.8,10.5,9.7,21,12.8,32.2
			c-12,3.3-22.5,10.5-34.3,14.5c-0.2,0.1-1.8-4.2-2-4.6c-0.8-2.2-1-2.5,1.1-3.6C588.7,234.5,592,232.7,595.3,230.9"/>
		<path clip-path="url(#heroSvg_SVGID_4_)" fill="#D2F4F7" d="M552.7,242.7c1.1,0.9,2.5,1.8,3.9,1.4c1.4-0.4,2.2-1.8,2.8-3
			c10.2-20.2,22.8-39.2,32.9-59.5c-1.5-1.3-3.1-2.4-4.7-3.4c-0.5-0.3-1.2-0.6-1.8-0.5c-0.5,0.1-0.9,0.5-1.2,0.9
			c-3,3.4-4.8,7.7-6.9,11.7c-0.9,1.9-2,3.7-3,5.5c-4.7,8.4-9.4,16.8-14.1,25.3c-2.2,4-4.5,8-6.9,11.9c-1.1,1.8-3.1,3.7-3.8,5.7
			C549,240.6,551.3,241.6,552.7,242.7"/>
		<path clip-path="url(#heroSvg_SVGID_4_)" fill="#FFFFFF" d="M534.7,209.7c-2.1-5.9-4.1-11.8-7.6-17c-0.9-1.4-2-2.9-1.7-4.6
			c0.3-1.8,2.2-2.9,3.9-3.7c8.9-4.3,17.9-8.6,26.9-12.7c0.6-0.3,1.2-0.5,1.8-0.4c0.9,0.1,1.5,0.9,2.1,1.7c0.7,0.9,1.4,1.9,1.4,3.1
			c0.1,2.1-2.1,3.6-4,4.5c-3.5,1.6-7.1,2.6-10.6,4c-3.5,1.4-7,3.3-9.4,6.2c-0.3,0.3-0.6,0.7-0.7,1.1c-0.3,0.6-0.2,1.3-0.2,2
			c0,1,0,2.1,0.4,3.1c0.5,1.4,1.5,2.5,2.2,3.8c0.8,1.6,1.1,3.4,1.5,5.2c1.1,3.8,3.4,7.2,4.8,10.9c0.2,0.5,0.4,1.1,0.1,1.6
			c-0.2,0.3-0.5,0.5-0.9,0.7c-1.3,0.6-3.1,1.9-4.5,2.2c-1.5,0.2-1.5-0.9-2-2.2c-0.5-1.6-1.1-3.1-1.6-4.7
			C535.8,213.1,534.7,211.1,534.7,209.7"/>
		<path clip-path="url(#heroSvg_SVGID_4_)" fill="#FFFFFF" d="M595.9,224.9c1.7-0.9,3.3-1.8,5.1-2.5c2.5-1,5.2-1.6,7.3-3.4
			c0.4-0.3,0.8-0.7,1-1.2c0.4-0.9,0-1.9-0.4-2.9c-3-7.5-6.1-15-9.1-22.5c-0.1-0.3-0.3-0.7-0.2-1c0.1-0.3,0.3-0.5,0.5-0.8
			c1.1-1.1,2.5-2,3.9-2.5c0.4-0.2,0.8-0.3,1.2-0.2c0.4,0.1,0.7,0.3,1,0.5c1,0.9,1.6,2.2,2.2,3.4c4.8,10.5,9.7,21,12.8,32.2
			c-12,3.3-22.5,10.5-34.3,14.5c-0.2,0.1-1.8-4.2-2-4.6c-0.8-2.2-1-2.5,1.1-3.6C589.3,228.6,592.6,226.8,595.9,224.9"/>
		<path clip-path="url(#heroSvg_SVGID_4_)" fill="#FFFFFF" d="M553.3,236.8c1.1,0.9,2.5,1.8,3.9,1.4c1.4-0.4,2.2-1.8,2.8-3
			c10.2-20.2,22.8-39.2,32.9-59.5c-1.5-1.3-3.1-2.4-4.7-3.4c-0.5-0.3-1.2-0.6-1.8-0.5c-0.5,0.1-0.9,0.5-1.2,0.9
			c-3,3.4-4.8,7.7-6.9,11.7c-0.9,1.9-2,3.7-3,5.5c-4.7,8.4-9.4,16.8-14.1,25.3c-2.2,4-4.5,8-6.9,11.9c-1.1,1.8-3.1,3.7-3.8,5.7
			C549.6,234.7,552,235.7,553.3,236.8"/>
		<path clip-path="url(#heroSvg_SVGID_4_)" fill="#484746" d="M558,170.2c-11.7,3.2-22.8,8.3-32.8,15.2c-0.8,0.6-1.2,1.5-0.7,2.1
			c0.4,0.6,1.4,0.6,2.2,0c9.7-6.9,20.5-12.1,31.9-15.5c0.7-0.2,1.1-0.7,1-1.2C559.3,170.3,558.6,170,558,170.2"/>
		<path clip-path="url(#heroSvg_SVGID_4_)" fill="#484746" d="M540.1,221.6l-12.4-32.5c-0.4-0.9-1.2-1.4-1.8-1.1c-0.7,0.3-0.9,1.2-0.6,2.1
			l13.1,32.2c0.2,0.6,0.8,1,1.3,0.8C540.2,222.9,540.3,222.3,540.1,221.6"/>
		<path clip-path="url(#heroSvg_SVGID_4_)" fill="#484746" d="M560.6,177.4c-4.5,1.6-9.1,3.2-13.4,5.4c-4.4,2.1-8.5,4.8-12.4,7.5
			c-0.7,0.5-0.8,1.3-0.4,1.9c0.4,0.6,1.3,0.7,1.9,0.2c3.8-2.8,7.7-5.5,11.9-7.7c4.2-2.2,8.6-3.9,13.1-5.6c0.5-0.2,0.8-0.7,0.6-1.2
			C561.7,177.4,561.2,177.2,560.6,177.4"/>
		<path clip-path="url(#heroSvg_SVGID_4_)" fill="#484746" d="M546.8,218l-9.3-24.5c-0.3-0.7-1-1-1.7-0.7c-0.7,0.3-1,1-0.7,1.7l10,24.2
			c0.2,0.5,0.7,0.7,1.2,0.5C546.7,219,547,218.5,546.8,218"/>
		<path clip-path="url(#heroSvg_SVGID_4_)" fill="#484746" d="M545.9,217.7l-6.8,3.5c-0.2,0.1,0,0.7,0.3,1.3c0.4,0.6,0.8,1,1,0.9l6.4-4.2
			c0.1-0.1,0-0.5-0.2-0.9C546.3,217.9,546,217.6,545.9,217.7"/>
		<path clip-path="url(#heroSvg_SVGID_4_)" fill="#484746" d="M562.7,177.3l-2.4-6.9c-0.1-0.2-0.7-0.1-1.3,0.1c-0.7,0.3-1.1,0.6-1.1,0.8
			l3.1,6.6c0.1,0.1,0.5,0.1,0.9-0.1C562.4,177.7,562.7,177.5,562.7,177.3"/>
		<path clip-path="url(#heroSvg_SVGID_4_)" fill="#484746" d="M583.7,172.9l-33.9,58.3c-0.9,1.6-1.2,3.2-0.5,3.6s1.9-0.7,2.8-2.3l33.2-58.6
			c0.7-1.1,0.8-2.3,0.4-2.5C585.3,171,584.4,171.7,583.7,172.9"/>
		<path clip-path="url(#heroSvg_SVGID_4_)" fill="#484746" d="M591.8,176.9L558,235.2c-0.9,1.6-1.2,3.2-0.5,3.6c0.6,0.4,1.9-0.7,2.8-2.3
			l33.2-58.6c0.7-1.1,0.8-2.3,0.4-2.5C593.4,175.1,592.5,175.8,591.8,176.9"/>
		<path clip-path="url(#heroSvg_SVGID_4_)" fill="#484746" d="M556.8,237.9l-6.4-4.8c-0.2-0.1-0.7,0.3-1.1,0.9c-0.4,0.6-0.6,1.2-0.4,1.3
			l6.9,4.1c0.1,0.1,0.5-0.2,0.7-0.6C556.8,238.4,556.9,238,556.8,237.9"/>
		<path clip-path="url(#heroSvg_SVGID_4_)" fill="#484746" d="M593.7,175.3l-7.3-5c-0.2-0.1-0.7,0.3-1.1,0.9c-0.4,0.6-0.5,1.2-0.3,1.3
			l7.7,4.3c0.1,0.1,0.5-0.2,0.7-0.6C593.8,175.8,593.9,175.3,593.7,175.3"/>
		<path clip-path="url(#heroSvg_SVGID_4_)" fill="#484746" d="M610.4,218.2c-2.9-9.1-6.4-18.1-10.4-26.8c-0.3-0.7-1.1-1-1.8-0.7
			c-0.6,0.3-0.9,1.1-0.6,1.8c4.2,8.5,7.8,17.3,11,26.2c0.2,0.5,0.7,0.8,1.2,0.7C610.4,219.3,610.6,218.7,610.4,218.2"/>
		<path clip-path="url(#heroSvg_SVGID_4_)" fill="#484746" d="M583.5,232.2l25.3-11.4c0.7-0.3,1-1.1,0.7-1.8c-0.3-0.6-1.1-0.9-1.8-0.6
			l-25,12.1c-0.5,0.2-0.7,0.8-0.5,1.2C582.5,232.2,583.1,232.4,583.5,232.2"/>
		<path clip-path="url(#heroSvg_SVGID_4_)" fill="#484746" d="M587.9,239.7c-0.3-3.3-1.8-6.5-4.1-9c-0.2-0.2-0.8,0.1-1.2,0.6
			c-0.5,0.5-0.7,1.1-0.6,1.3c2.1,1.8,3.6,4.5,4.1,7.3c0,0.2,0.4,0.3,0.9,0.2C587.5,240.1,587.9,239.9,587.9,239.7"/>
		<path clip-path="url(#heroSvg_SVGID_4_)" fill="#484746" d="M605.3,186.7l-7.2,3c-0.2,0.1-0.1,0.7,0.2,1.3c0.3,0.7,0.7,1.1,0.9,1l6.9-3.7
			c0.1-0.1,0.1-0.5-0.1-0.9C605.8,186.9,605.5,186.6,605.3,186.7"/>
		<path clip-path="url(#heroSvg_SVGID_4_)" fill="#484746" d="M622.4,222.7l-14.9-34.5c-0.4-0.9-1.3-1.5-2-1.2c-0.7,0.3-0.8,1.3-0.4,2.2
			l15.6,34.1c0.3,0.7,0.9,1,1.4,0.8C622.6,224,622.7,223.3,622.4,222.7"/>
		<path clip-path="url(#heroSvg_SVGID_4_)" fill="#484746" d="M620.7,222.8l-32.8,14.9c-0.9,0.4-1.4,1.3-1.1,1.9c0.3,0.7,1.3,0.8,2.2,0.4
			l32.4-15.6c0.6-0.3,1-0.9,0.8-1.4C622,222.6,621.3,222.5,620.7,222.8"/>
		<path clip-path="url(#heroSvg_SVGID_4_)" fill="#CDD5E8" d="M921,369.7c10,0.1,19.8-2.5,29.3-5.6c4.2-1.4,8.4-2.9,12.2-5.3
			c3.7-2.4,6.9-5.8,8.2-10.1c0.8-2.7,0.5-6.2-2-7.4c-1.4-0.6-2.9-0.4-4.4-0.1c-11.8,2-23.7,4.1-34.6,8.9c-3.7,1.6-7.2,3.5-11.1,4.7
			c-3.1,1-6.4,1.5-9.7,1.9c-3.4,0.5-12.4,0.3-14.6,2.7C899.7,366.9,912.4,369.5,921,369.7"/>
		<path clip-path="url(#heroSvg_SVGID_4_)" fill="#FFFFFF" d="M963.7,288c-0.9-4.2-1.9-8.5-4.8-11.7c-4.6-5.1-12.2-5.8-19.1-5.6
			c-16.2,0.4-32.5,3.4-47.6,9.5c-3.1,1.2-6.2,2.7-8.3,5.2c-2.5,2.9-3.4,7-3.3,10.9c0.1,3.9,1.2,7.6,2.1,11.4c0,0.1,0.1,0.2,0.1,0.3
			c-7.9,1.3-15.6,5.3-19.9,11.9c-4.6,7.1-4.4,17.6,1.9,23.4c1.7,1.6,3.8,2.8,6,3.7c4.6,1.9,9.7,2.5,14.6,1.9c3.1-0.4,4.9-1,5.8-2.2
			c1.9,5,4.7,9.7,9.1,12.7c7.5,5.1,17.4,3.9,26.2,2.1c12.4-2.6,24.8-6.2,35-13.7c1.6-1.2,3.1-2.5,4.3-4.1c2.7-3.8,2.8-8.9,2.6-13.5
			c-0.3-11-1.4-21.9-3.1-32.7C964.9,294.1,964.3,291.1,963.7,288 M885.3,337.2c-3.1,0.3-6.2,0.2-9.2-0.5c-1.6-0.3-3.2-0.8-4.4-1.9
			c-2.1-1.8-2.5-5.1-1.5-7.7c1-2.6,3.1-4.6,5.4-6.1c2.8-1.8,5.9-3,9.2-3.6c1.2,6.6,2.2,13.2,3.7,19.7
			C887.5,337,886.4,337.1,885.3,337.2"/>
		<path clip-path="url(#heroSvg_SVGID_4_)" fill="#D2F4F7" d="M952.3,277.6c0.5,2.5,10.5,5,0.5,15.8c-1.8,1.9-3.7,2.6-5.1,4.8
			c-1.7,2.6-1.8,4.4-1.5,7.5c0.5,6,0.6,12.1,0.2,18.1c-0.1,2-0.3,4.1-1.3,6c-1.6,3-5.1,4.7-6.7,7.8c-2,3.6-1,8.3-2.5,12.1
			c-1.3,3.2-4.3,6.1-3.8,9.5c0,0.2,0.1,0.5,0.3,0.6c0.2,0.2,0.5,0.2,0.7,0.2c8.7-0.1,16.9-3.8,24.2-8.4c2.3-1.4,4.5-2.9,6.3-4.9
			c4.8-5.4,5.5-13.2,5.4-20.4c-0.2-14.6-2.4-29.1-6.6-43c-0.8-2.7-1.8-5.6-3.7-7.7c-2.6-2.9-6.6-4.1-10.5-4.5
			c-1.8-0.2-5.1,4.4,0,5.4C950.9,277,952.3,277.6,952.3,277.6"/>
		<path clip-path="url(#heroSvg_SVGID_4_)" fill="#484746" d="M945.6,270c-6-0.2-11.9-0.1-17.9,0.4c-0.5,0.1-0.8,0.7-0.7,1.4
			c0.1,0.7,0.5,1.2,1,1.2c5.8-0.8,11.7-1.2,17.6-1.2c0.3,0,0.6-0.4,0.6-0.9C946.2,270.4,945.9,270,945.6,270"/>
		<path clip-path="url(#heroSvg_SVGID_4_)" fill="#484746" d="M912.7,273.3c-4.2,0.9-8.4,2-12.6,3.2c-2.1,0.6-4.1,1.3-6.2,2
			c-2,0.7-4.1,1.5-6.1,2.4c-2,0.9-4,2.2-5.6,4c-1.6,1.8-2.5,4.1-2.9,6.3c-0.4,2.3-0.4,4.6-0.1,6.8c0.3,2.2,1,4.4,1.6,6.4
			c0.5,1.4,1.4,2.3,2.1,2c0.7-0.2,0.8-1.5,0.4-2.9c-1.4-4-2.4-8.1-1.7-12c0.3-2,1.1-3.8,2.3-5.3c1.2-1.5,2.9-2.6,4.8-3.5
			c1.9-0.9,3.9-1.6,5.9-2.4c2-0.7,4-1.4,6.1-2.1c4.1-1.3,8.2-2.4,12.4-3.4c1-0.2,1.7-0.8,1.6-1.3C914.5,273.3,913.7,273,912.7,273.3
			"/>
		<path clip-path="url(#heroSvg_SVGID_4_)" fill="#484746" d="M944.5,274.4c-7.1-0.4-14.2-0.2-21.2,0.6c-0.6,0.1-1,0.7-0.9,1.4
			c0.1,0.7,0.6,1.2,1.2,1.2c6.9-1,13.8-1.5,20.8-1.3c0.4,0,0.8-0.4,0.8-0.9C945.2,274.8,944.9,274.4,944.5,274.4"/>
		<path clip-path="url(#heroSvg_SVGID_4_)" fill="#484746" d="M908.7,278c-4.7,1.1-9.3,2.5-13.8,4.1c-2.3,0.8-4.6,1.8-6.6,3.7
			c-0.9,0.9-1.7,2.1-2.1,3.5c-0.3,1.4-0.3,2.8,0.1,4.1c0.7,2.6,2.5,4.8,4.8,6.1c2.2,1.3,4.7,2,7.1,2.4c4.8,0.7,9.6,0.9,14.5,0.8
			c9.7-0.3,19.3-2.2,28.3-5.7c2.2-0.9,4.5-1.8,6.7-3c2.2-1.2,4.3-2.9,5.7-5.3c1.4-2.4,1.6-5.4,0.6-8c-0.2-0.6-0.5-1.3-0.9-1.9
			c-0.4-0.6-0.9-1.2-1.4-1.6c-1-0.9-2.2-1.6-3.4-2.1c-1.6-0.7-3.2-0.8-4.4-0.7c-1.1,0.2-1.8,0.6-1.7,0.9c0,0.4,0.7,0.6,1.6,0.9
			c0.9,0.3,2.2,0.7,3.5,1.2c1,0.4,1.9,1,2.7,1.6c0.4,0.3,0.7,0.7,0.9,1.1c0.3,0.4,0.5,0.9,0.7,1.3c0.7,1.9,0.6,4.1-0.4,5.9
			c-1,1.8-2.7,3.2-4.7,4.4c-2,1.1-4.2,2-6.3,2.9c-8.8,3.4-18.1,5.4-27.5,5.7c-4.7,0.2-9.5,0-14.1-0.7c-2.3-0.3-4.5-0.9-6.4-2
			c-1.9-1.1-3.3-2.8-3.9-4.9c-0.3-1-0.3-2-0.1-3c0.2-1,0.8-1.9,1.5-2.6c1.5-1.5,3.6-2.5,5.8-3.3c4.4-1.6,9-3,13.6-4.2
			c2.1-0.5,3.8-1.3,3.7-1.8C912.7,277.5,910.8,277.5,908.7,278"/>
		<path clip-path="url(#heroSvg_SVGID_4_)" fill="#484746" d="M882.6,306.5c-6.2,1.2-12.3,3.9-16.9,8.5c-2.3,2.3-4.2,5-5.4,8
			c-1.3,3-1.8,6.4-1.5,9.6c0.3,3.3,1.4,6.5,3.4,9.2c2,2.7,4.8,4.7,7.8,6c3,1.3,6.3,1.9,9.5,2c3.2,0.1,6.5-0.4,9.5-1.2
			c2.1-0.5,3.5-1.6,3.3-2.3c-0.2-0.7-2-0.7-3.9-0.2c-5.8,1.5-12.1,1.9-17.5-0.5c-2.7-1.1-5.1-2.9-6.9-5.2c-1.7-2.3-2.8-5.1-3.1-8
			c-0.7-5.9,1.9-11.8,6.1-16c4.2-4.3,9.9-6.9,15.8-8.2c1.4-0.3,2.5-0.8,2.4-1.3C885.3,306.5,884.1,306.2,882.6,306.5"/>
		<path clip-path="url(#heroSvg_SVGID_4_)" fill="#484746" d="M885,316.7c-3.7,0.4-7.6,1.3-10.9,3.6c-1.6,1.2-3,2.7-3.9,4.5
			c-0.9,1.8-1.3,4-1,6c0.3,2,1.2,4.1,2.9,5.5c1.7,1.4,3.7,2,5.6,2.4c3.8,0.7,7.7,0.7,11.5,0c1.3-0.2,2.1-1.1,1.9-1.8
			c-0.2-0.7-1.3-1-2.4-0.8c-3.5,0.7-7.1,0.8-10.6,0.2c-1.7-0.3-3.3-0.8-4.5-1.8c-1.2-1-2-2.4-2.2-4c-0.2-1.6,0-3.3,0.7-4.7
			c0.7-1.5,1.9-2.8,3.2-3.8c2.7-2.1,6.3-3,9.8-3.4c0.8-0.1,1.5-0.5,1.4-1.1C886.6,316.9,885.8,316.6,885,316.7"/>
		<path clip-path="url(#heroSvg_SVGID_4_)" fill="#484746" d="M952.3,272.7c2.8,1,5.3,3.2,6.9,5.7c1.7,2.6,2.7,5.6,3.4,8.7
			c1.4,6.3,2.4,12.7,3.3,19.1c0.9,6.4,1.5,12.9,1.9,19.3c0.2,3.2,0.4,6.5,0.2,9.6c-0.1,1.6-0.4,3.1-0.8,4.5c-0.5,1.4-1.2,2.8-2,4
			c-1.8,2.5-4.3,4.4-7,6c-2.7,1.6-5.6,2.9-8.6,4.2c-5.9,2.4-12.1,4.3-18.4,5.4c-3.2,0.6-6.3,1-9.5,1.3c-3.2,0.2-6.4,0.4-9.6,0.2
			c-3.1-0.2-6.3-0.7-9.1-1.8c-2.8-1.1-5.4-2.9-7.3-5.3c-1.3-1.5-2.1-3.1-2.7-4.3c-0.6-1.2-1-2-1.3-2c-0.3,0-0.6,1-0.4,2.5
			c0.2,1.5,1,3.6,2.5,5.4c2.2,2.7,5.2,4.8,8.4,6c3.2,1.2,6.6,1.8,9.9,1.9c3.3,0.2,6.6,0,9.9-0.3c3.3-0.3,6.5-0.7,9.8-1.4
			c6.5-1.2,12.8-3.1,18.9-5.7c3-1.3,6-2.6,8.9-4.4c2.8-1.7,5.6-3.9,7.6-6.7c1-1.4,1.8-3,2.3-4.6c0.5-1.7,0.8-3.4,0.9-5
			c0.2-3.4-0.1-6.6-0.3-9.9c-0.4-6.5-1.1-13-2-19.4c-0.9-6.5-2-12.9-3.4-19.3c-0.8-3.2-1.9-6.4-3.7-9.3c-1.8-2.9-4.6-5.2-7.9-6.5
			c-1.5-0.6-3.1-0.6-4.1-0.5c-1.1,0.2-1.6,0.6-1.6,0.8c0.1,0.3,0.7,0.3,1.6,0.5C949.7,272,950.9,272.2,952.3,272.7"/>
		<path clip-path="url(#heroSvg_SVGID_4_)" fill="#484746" d="M894.9,363.2c-2.8-2.6-4.8-6-5.7-9.7c-0.1-0.3-0.7-0.4-1.4-0.2
			c-0.7,0.2-1.2,0.6-1.1,0.9c1.3,4,3.8,7.6,7,10.3c0.2,0.2,0.6,0,0.9-0.4C894.9,363.8,895,363.4,894.9,363.2"/>
		<path clip-path="url(#heroSvg_SVGID_4_)" fill="#484746" d="M899.2,365l-1.7-0.7c0,0-0.2,0.6-0.3,1.3c-0.1,0.7-0.2,1.3-0.2,1.3l1.9,0
			c0,0,0.1-0.4,0.2-0.9C899.2,365.4,899.2,365,899.2,365"/>
		<path clip-path="url(#heroSvg_SVGID_4_)" fill="#484746" d="M858.8,316.2c-2.8,2.5-4.8,5.9-5.5,9.6c-0.8,3.7-0.3,7.6,1.3,11.1
			c0.3,0.6,1,0.7,1.7,0.4c0.6-0.4,0.9-1,0.7-1.5c-1.5-2.9-2-6.3-1.5-9.5c0.5-3.2,2.2-6.3,4.6-8.6c0.3-0.3,0.3-0.8-0.1-1.2
			C859.6,316,859.1,315.9,858.8,316.2"/>
		<path clip-path="url(#heroSvg_SVGID_4_)" fill="#484746" d="M856.3,340.3l0.3,1.9c0,0,0.6-0.1,1.2-0.4c0.7-0.3,1.2-0.5,1.2-0.6l-1-1.6
			c0,0-0.4,0.1-0.9,0.3C856.7,340.1,856.3,340.3,856.3,340.3"/>
		<path clip-path="url(#heroSvg_SVGID_4_)" fill="#484746" d="M968.3,280.8c-1.1-6.7-6-12.7-12.5-15.1c-0.6-0.2-1.2,0.2-1.4,0.9
			c-0.2,0.7,0,1.4,0.5,1.5c5.7,1.9,10.3,7,11.5,13c0.1,0.3,0.5,0.6,1,0.5C968.1,281.5,968.4,281.2,968.3,280.8"/>
		<path clip-path="url(#heroSvg_SVGID_4_)" fill="#484746" d="M966.8,285l0,2.1c0,0.1,0.6,0,1.3-0.1c0.7-0.1,1.3-0.3,1.3-0.3l-0.8-1.9
			c0,0-0.4,0-0.9,0.1C967.2,284.9,966.8,285,966.8,285"/>
		<path clip-path="url(#heroSvg_SVGID_4_)" fill="#484746" d="M973.8,320.3c1.2,6.2,1.1,12.7-0.3,18.8c-0.1,0.5,0.4,1.1,1.1,1.2
			c0.7,0.2,1.4-0.1,1.5-0.7c1.3-6.5,1.1-13.3-0.4-19.7c-0.1-0.4-0.5-0.6-1-0.5C974.1,319.5,973.7,319.9,973.8,320.3"/>
		<path clip-path="url(#heroSvg_SVGID_4_)" fill="#484746" d="M972.8,342.8l-1.2,1.8c0,0.1,0.5,0.3,1.2,0.6c0.7,0.3,1.2,0.5,1.2,0.4l0.5-2.1
			c0,0-0.3-0.2-0.8-0.4C973.2,342.9,972.8,342.8,972.8,342.8"/>
		<path clip-path="url(#heroSvg_SVGID_4_)" fill="#484746" d="M909.3,305.4c-5.2,0.6-10.5-0.1-15.3-1.9c-0.4-0.1-0.9,0.3-1.2,1
			c-0.3,0.7-0.1,1.3,0.3,1.5c5.3,1.7,11,2.2,16.5,1.3c0.3,0,0.5-0.5,0.4-1C909.9,305.8,909.6,305.4,909.3,305.4"/>
		<path clip-path="url(#heroSvg_SVGID_4_)" fill="#484746" d="M884.3,318.9l2.7,17c0.1,0.5,0.7,0.7,1.4,0.6c0.7-0.1,1.2-0.6,1.1-1.1
			l-3.5-16.9c-0.1-0.3-0.5-0.5-1-0.4C884.6,318.2,884.2,318.6,884.3,318.9"/>
		<path clip-path="url(#heroSvg_SVGID_4_)" fill="#484746" d="M911,244c1.3-0.4,2.8-0.3,4,0.3c1.2,0.6,2.2,1.7,2.9,2.9
			c0.6,1.3,0.9,2.7,0.7,4.1c-0.2,1.4-0.8,2.7-1.7,3.8c-1.8,2.3-4.7,3.5-7.7,3.4c-2.9-0.1-5.8-1.4-7.9-3.5c-4.3-4.1-5.5-11.2-3-16.6
			c2.5-5.4,8.4-9.1,14.4-9.2c3-0.1,6,0.7,8.6,2.1c2.7,1.4,5,3.5,6.7,6c3.5,4.9,4.3,11.5,2.8,17.4c-0.8,2.9-2.2,5.7-4,8.2
			c-1.8,2.5-4,4.8-6.1,7.2c-2.1,2.4-4.2,5-5.9,7.9c-1.6,2.9-2.8,6.3-2.7,9.8c0,2.3,0.8,4.4,1.6,5.6c0.9,1.3,1.7,1.7,2,1.5
			c0.3-0.2,0-1.1-0.3-2.3c-0.4-1.2-0.7-2.9-0.7-4.9c-0.1-2.9,0.8-5.8,2.3-8.5c1.5-2.7,3.5-5.1,5.5-7.5c2.1-2.4,4.3-4.8,6.2-7.4
			c1.9-2.7,3.5-5.7,4.4-9c0.8-3.2,1-6.7,0.5-10c-0.5-3.3-1.7-6.6-3.7-9.3c-2-2.7-4.5-5-7.5-6.6c-3-1.6-6.4-2.4-9.8-2.3
			c-3.4,0.1-6.7,1.2-9.6,3c-2.8,1.8-5.2,4.4-6.7,7.5c-1.4,3.1-1.7,6.7-1.1,10c0.6,3.3,2.2,6.5,4.7,8.9c2.5,2.4,5.8,3.9,9.3,4
			c3.5,0.2,7-1.4,9.2-4.1c1.1-1.4,1.9-3,2.1-4.8c0.2-1.8-0.1-3.6-0.9-5.2c-0.8-1.6-2.1-3-3.8-3.8c-1.7-0.8-3.6-0.9-5.3-0.4
			c-1.6,0.4-2.9,1.4-3.5,2.4c-0.6,0.9-0.6,1.6-0.4,1.7c0.2,0.1,0.7-0.3,1.4-0.9C908.7,245,909.7,244.4,911,244"/>
		<rect x="653.1" y="163" clip-path="url(#heroSvg_SVGID_4_)" fill="#2F5D9E" width="172.5" height="164.2"/>
		<path clip-path="url(#heroSvg_SVGID_4_)" fill="#62D1FC" d="M678.7,250.7c0,0-16.7,1.9-25.5,10.9v65.7h172.5V261c0,0-15.4-14.3-29.6-13.4
			L678.7,250.7z"/>
		<path clip-path="url(#heroSvg_SVGID_4_)" fill="#484746" d="M654.4,261.2c7.9-4.9,16.9-8,26.1-9.1c0.8-0.1,1.3-0.7,1.2-1.5
			c-0.1-0.7-0.8-1.2-1.6-1.1c-9.5,1.4-18.8,4.8-26.8,10.1c-0.5,0.3-0.6,0.9-0.4,1.3C653.3,261.4,653.9,261.5,654.4,261.2"/>
		<path clip-path="url(#heroSvg_SVGID_4_)" fill="#484746" d="M825.1,260.1c-4-3.5-8.5-6.6-13.3-9c-4.8-2.5-9.9-4.4-15.2-5.4
			c-0.9-0.1-1.7,0.3-1.8,1c-0.1,0.7,0.5,1.4,1.4,1.5c5.1,0.8,10,2.5,14.7,4.8c4.7,2.3,9.1,5.1,13.1,8.5c0.5,0.4,1.1,0.4,1.4,0
			C825.6,261.2,825.5,260.5,825.1,260.1"/>
		<path clip-path="url(#heroSvg_SVGID_4_)" fill="#51BFE0" d="M825.4,264.2c-0.1-0.7-0.1-1.5-0.5-2.1c-0.3-0.5-0.7-0.8-1.2-1.2
			c-6.3-4.7-13-8.7-20-12.1c-2.1-1-4.2-1.9-6.5-2c-1.3,0-2.6,0.2-3.6,1.1c-0.9,0.8-1.4,2-1.7,3.2c-0.9,3.5-0.8,7.1-1,10.7
			c-0.8,11.9-81,37.6-83.3,49.2c-0.9,4.7,4.7,11.5,14.9,16.4h70c0.6-1.3,1-3.3,1.4-4.3c0.7-1.9,1.5-3.8,2.2-5.7
			c3-7.6,6.1-15.2,7.7-23.3c1.7-8.8,1.4-17.9,4-26.5c0.4-1.2,0.8-2.5,1.6-3.5c2.1-2.6,6.1-2.8,9.1-1.3c3,1.5,5.1,4.2,7.2,6.8
			C825.6,267.8,825.5,266,825.4,264.2"/>
		<path clip-path="url(#heroSvg_SVGID_4_)" fill="#FFFFFF" d="M707.3,662.1c1.1-2.7,2.3-5.5,4.7-7.3c3.7-2.9,9-2.4,13.6-1.5
			c10.9,2.2,21.5,6.2,30.9,12.1c1.9,1.2,3.8,2.5,5,4.5c1.4,2.3,1.5,5.1,0.9,7.7c-0.6,2.6-1.7,5-2.8,7.4c0,0.1-0.1,0.1-0.1,0.2
			c5.2,1.9,9.8,5.4,12,10.5c2.2,5.4,0.8,12.4-4.1,15.5c-1.4,0.9-2.9,1.4-4.5,1.7c-3.3,0.7-6.8,0.5-10.1-0.5c-2-0.6-3.2-1.2-3.6-2.2
			c-1.9,3.1-4.3,5.9-7.7,7.4c-5.6,2.5-12.2,0.5-17.9-1.8c-8-3.2-16-7.2-21.9-13.5c-0.9-1-1.8-2-2.4-3.3c-1.4-2.9-0.8-6.3-0.1-9.5
			c1.6-7.4,3.6-14.6,6.1-21.7C705.8,666.1,706.5,664.1,707.3,662.1 M754.2,704.8c2,0.6,4.1,0.9,6.3,0.8c1.1,0,2.3-0.2,3.2-0.8
			c1.6-1,2.3-3.1,1.9-5c-0.3-1.9-1.5-3.5-2.9-4.8c-1.6-1.6-3.6-2.8-5.7-3.5c-1.6,4.3-3.1,8.6-4.9,12.8
			C752.8,704.3,753.5,704.6,754.2,704.8"/>
		<path clip-path="url(#heroSvg_SVGID_4_)" fill="#D2F4F7" d="M716.2,656.4c-0.6,1.6-7.7,2.1-2.2,10.6c0.9,1.5,2.2,2.2,2.9,3.9
			c0.9,2,0.7,3.2,0.1,5.2c-1.1,4-1.9,8.1-2.4,12.2c-0.2,1.4-0.3,2.8,0.1,4.2c0.7,2.2,2.8,3.8,3.6,6c0.9,2.7-0.3,5.7,0.2,8.5
			c0.5,2.3,2.2,4.6,1.4,6.9c-0.1,0.2-0.1,0.3-0.3,0.4c-0.1,0.1-0.3,0.1-0.5,0c-5.8-1.1-10.9-4.6-15.3-8.6c-1.4-1.2-2.7-2.5-3.7-4.1
			c-2.6-4.2-2.1-9.6-1.2-14.4c1.9-9.8,5.2-19.3,9.7-28.2c0.9-1.8,1.9-3.5,3.4-4.7c2.1-1.6,4.9-1.9,7.6-1.8c1.2,0.1,2.9,3.6-0.7,3.7
			C717.3,656.2,716.2,656.4,716.2,656.4"/>
		<path clip-path="url(#heroSvg_SVGID_4_)" fill="#484746" d="M721.5,653.6c3.9,0.8,7.8,1.8,11.7,3.1c0.3,0.1,0.7-0.4,1-1.1
			c0.2-0.7,0.1-1.3-0.2-1.4c-4-1-8-1.8-12.1-2.4c-0.2,0-0.5,0.3-0.6,0.8C721.1,653.2,721.2,653.6,721.5,653.6"/>
		<path clip-path="url(#heroSvg_SVGID_4_)" fill="#484746" d="M742.9,659.7c2.7,1.1,5.3,2.4,7.9,3.8c1.3,0.7,2.6,1.4,3.8,2.2
			c1.2,0.8,2.5,1.5,3.6,2.3c1.1,0.8,2.1,1.8,2.7,2.8c0.6,1.1,0.9,2.4,0.9,3.7c0,2.6-1.2,5.2-2.6,7.7c-0.5,0.8-0.3,1.8,0.3,2.2
			c0.6,0.4,1.5,0,2-0.9c0.7-1.3,1.4-2.7,1.9-4.2c0.5-1.5,0.8-3.1,0.8-4.7c0-1.6-0.4-3.3-1.3-4.8c-0.9-1.5-2.1-2.6-3.4-3.5
			c-1.3-0.9-2.6-1.6-3.9-2.4c-1.3-0.7-2.6-1.4-3.9-2.1c-2.7-1.3-5.4-2.6-8.1-3.7c-0.6-0.3-1.3-0.1-1.5,0.4
			C741.9,658.9,742.3,659.5,742.9,659.7"/>
		<path clip-path="url(#heroSvg_SVGID_4_)" fill="#484746" d="M721.7,656.7c4.7,0.8,9.3,2,13.8,3.5c0.4,0.1,0.9-0.3,1.1-1
			c0.2-0.7,0.1-1.3-0.3-1.5c-4.7-1.3-9.5-2.3-14.3-2.9c-0.3,0-0.6,0.3-0.6,0.8S721.4,656.7,721.7,656.7"/>
		<path clip-path="url(#heroSvg_SVGID_4_)" fill="#484746" d="M745,663.4c3,1.3,5.8,2.8,8.6,4.5c1.4,0.8,2.6,1.7,3.4,2.8
			c0.8,1.1,0.9,2.4,0.3,3.6c-0.6,1.2-1.7,2.2-3.1,2.6c-1.3,0.5-2.9,0.6-4.4,0.6c-3.2-0.2-6.4-0.6-9.5-1.3
			c-6.3-1.4-12.3-3.8-17.8-7.2c-1.4-0.9-2.7-1.7-3.9-2.7c-1.2-1-2.1-2.1-2.5-3.3c-0.4-1.2-0.3-2.6,0.4-3.7c0.2-0.3,0.4-0.5,0.6-0.8
			c0.2-0.2,0.4-0.4,0.7-0.6c0.5-0.3,1.2-0.6,1.9-0.7c1.8-0.4,3.4-0.5,3.6-1.2c0.1-0.3-0.3-0.8-1-1.1c-0.8-0.3-1.9-0.5-3.1-0.2
			c-0.9,0.2-1.8,0.5-2.7,1.1c-0.4,0.2-0.9,0.6-1.2,1c-0.3,0.4-0.6,0.8-0.9,1.2c-1,1.7-1.2,3.9-0.6,5.8c0.7,1.9,2,3.3,3.3,4.4
			c1.4,1.1,2.8,2,4.2,2.9c5.7,3.4,12,5.9,18.5,7.3c3.3,0.7,6.6,1.1,9.9,1.2c1.7,0,3.5-0.1,5.2-0.8c1.7-0.7,3.3-1.9,4.1-3.7
			c0.4-0.9,0.7-1.9,0.6-2.9c-0.1-1-0.5-2-1-2.8c-1.1-1.6-2.6-2.5-4.1-3.4c-2.9-1.7-5.8-3.1-8.9-4.5c-1.4-0.6-2.7-0.7-2.9-0.2
			C742.7,662,743.6,662.8,745,663.4"/>
		<path clip-path="url(#heroSvg_SVGID_4_)" fill="#484746" d="M759.2,685.8c3.8,1.5,7.3,4,9.5,7.3c2.3,3.3,3.2,7.5,2.1,11.3
			c-0.5,1.9-1.6,3.6-3,4.9c-1.4,1.3-3.2,2.1-5.1,2.6c-3.8,0.9-7.9-0.1-11.6-1.8c-1.2-0.6-2.5-0.6-2.8,0c-0.3,0.6,0.4,1.7,1.8,2.3
			c2,0.9,4.2,1.6,6.4,2c2.2,0.4,4.6,0.3,6.8-0.2c2.2-0.5,4.4-1.6,6.1-3.2c1.7-1.6,2.9-3.7,3.5-6c0.6-2.2,0.7-4.6,0.2-6.8
			c-0.5-2.2-1.4-4.3-2.7-6.2c-2.6-3.7-6.4-6.3-10.5-7.9c-1-0.4-1.9-0.2-2,0.2C757.7,684.9,758.3,685.5,759.2,685.8"/>
		<path clip-path="url(#heroSvg_SVGID_4_)" fill="#484746" d="M756.5,692.5c2.3,0.7,4.5,1.8,6.1,3.5c1.5,1.7,2.3,3.9,1.5,5.9
			c-0.3,1-1,1.8-1.8,2.2c-0.9,0.5-2,0.6-3.1,0.6c-2.4-0.1-4.7-0.5-6.9-1.4c-0.7-0.3-1.5,0-1.9,0.6c-0.3,0.6,0.1,1.5,0.9,1.8
			c2.5,0.9,5.2,1.4,7.9,1.4c1.4,0,2.9-0.2,4.2-1c1.4-0.8,2.4-2.1,2.8-3.6c0.5-1.4,0.5-3,0-4.4c-0.4-1.4-1.2-2.6-2.2-3.6
			c-2-2-4.5-3.1-7-3.8c-0.6-0.2-1.2,0.1-1.3,0.6C755.6,691.8,756,692.3,756.5,692.5"/>
		<path clip-path="url(#heroSvg_SVGID_4_)" fill="#484746" d="M716.6,651.6c-2.4,0.4-4.6,1.7-6.2,3.5c-1.6,1.7-2.8,3.8-3.7,5.9
			c-1.8,4.2-3.3,8.3-4.7,12.6c-1.4,4.2-2.6,8.5-3.7,12.9c-0.5,2.2-1.1,4.3-1.4,6.7c-0.1,1.2-0.2,2.4,0,3.6c0.2,1.2,0.5,2.4,1,3.5
			c1,2.2,2.7,4,4.4,5.6c1.7,1.5,3.6,2.8,5.5,4.1c3.8,2.5,7.9,4.5,12.1,6.2c2.1,0.8,4.3,1.5,6.5,2.1c2.2,0.6,4.4,1.1,6.7,1.4
			c2.3,0.3,4.7,0.3,7-0.1c2.4-0.5,4.7-1.5,6.6-3.1c1.3-1.1,2-2.4,2.3-3.5c0.3-1.1,0.1-1.8-0.2-1.9c-0.4-0.1-0.8,0.4-1.4,1
			c-0.6,0.7-1.4,1.5-2.4,2.4c-1.5,1.3-3.4,2.2-5.3,2.6c-2,0.4-4.1,0.4-6.2,0.1c-2.1-0.3-4.3-0.7-6.4-1.3c-2.1-0.6-4.2-1.2-6.2-2
			c-4.1-1.5-8-3.5-11.7-5.8c-1.8-1.2-3.7-2.4-5.3-3.8c-1.6-1.4-3-3-3.9-4.8c-0.9-1.8-1.1-3.8-0.9-5.9c0.2-2.1,0.8-4.2,1.3-6.4
			c1-4.3,2.3-8.6,3.6-12.8c1.4-4.2,2.8-8.4,4.5-12.4c0.9-2,1.9-3.9,3.3-5.4c1.4-1.5,3.2-2.6,5.2-3c1.8-0.3,3.3-0.1,3.5-0.6
			c0.1-0.2-0.2-0.6-0.9-0.9C718.9,651.6,717.8,651.4,716.6,651.6"/>
		<path clip-path="url(#heroSvg_SVGID_4_)" fill="#484746" d="M769,672.7c-0.1-2.9-1.1-5.8-2.8-8.3c-0.2-0.2-0.7,0-1.3,0.5
			c-0.6,0.5-0.9,1-0.8,1.1c1.6,1.9,2.7,4.3,3.1,6.8c0,0.1,0.4,0.2,0.9,0.2C768.6,673,769,672.8,769,672.7"/>
		<path clip-path="url(#heroSvg_SVGID_4_)" fill="#484746" d="M693.2,682c-1.9,4.2-2.9,8.7-2.8,13.4c0,0.4,0.6,0.7,1.3,0.6
			c0.7,0,1.3-0.4,1.3-0.7c-0.3-4.2,0.4-8.6,1.9-12.6c0.1-0.2-0.2-0.6-0.7-0.8C693.7,681.7,693.3,681.8,693.2,682"/>
		<path clip-path="url(#heroSvg_SVGID_4_)" fill="#484746" d="M691,698.3l-0.1,1.5c0,0,0.6-0.1,1.3-0.2c0.7-0.2,1.3-0.3,1.3-0.4l-0.7-1.3
			c0,0-0.4,0-0.9,0.2C691.4,698.1,691,698.3,691,698.3"/>
		<path clip-path="url(#heroSvg_SVGID_4_)" fill="#484746" d="M741.4,682.9c3.6,1.3,7.5,1.8,11.4,1.3c0.3-0.1,0.5-0.7,0.3-1.4
			c-0.1-0.7-0.5-1.2-0.8-1.2c-3.4,0.7-7,0.6-10.4-0.4c-0.2-0.1-0.5,0.3-0.7,0.7C741.2,682.4,741.2,682.8,741.4,682.9"/>
		<path clip-path="url(#heroSvg_SVGID_4_)" fill="#484746" d="M755.7,692l-4.5,10.9c-0.1,0.3,0.3,0.8,1,1c0.7,0.3,1.3,0.2,1.4-0.1l3.8-11.2
			c0.1-0.2-0.2-0.5-0.7-0.7C756.2,691.8,755.8,691.8,755.7,692"/>
		<path clip-path="url(#heroSvg_SVGID_4_)" fill="#484746" d="M748.9,637.4c-1.2-0.6-2.5-0.7-3.8-0.4c-1.3,0.3-2.4,1.2-3.1,2.2
			c-0.8,1-1.2,2.3-1.3,3.5c-0.1,1.3,0.2,2.6,0.8,3.7c1.2,2.2,3.5,3.7,6,4.1c2.4,0.3,4.9-0.3,6.9-1.6c2-1.3,3.5-3.4,4.4-5.6
			c0.8-2.2,1.1-4.7,0.5-7.1c-1.2-4.7-5.2-8.3-9.9-9.4c-2.3-0.5-4.8-0.3-7.1,0.4c-2.3,0.7-4.3,2-6,3.6c-3.5,3.3-5,8.3-4.6,12.9
			c0.2,2.3,0.9,4.7,1.9,6.7c1,2.1,2.2,4,3.3,5.8c1.1,1.9,2.1,3.7,2.8,5.6c0.7,1.9,0.9,3.9,0.5,5.8c-0.2,1.2-0.6,2.3-0.9,3.1
			c-0.3,0.8-0.5,1.4-0.3,1.7c0.2,0.3,0.9,0.1,1.8-0.6c0.8-0.7,1.6-2.1,1.9-3.7c0.5-2.4,0.1-4.9-0.7-7.1c-0.8-2.2-1.9-4.2-3-6.1
			c-1.1-1.9-2.3-3.7-3.2-5.6c-0.9-1.9-1.5-3.8-1.7-5.8c-0.3-4,1-8.3,3.8-11.1c2.8-2.8,7.1-4.3,11-3.5c3.9,0.8,7.3,3.9,8.3,7.7
			c1,3.8-0.6,8.3-3.9,10.5c-1.6,1.1-3.6,1.6-5.5,1.4c-1.9-0.2-3.6-1.4-4.5-3c-0.5-0.8-0.7-1.7-0.6-2.6c0.1-0.9,0.4-1.8,0.9-2.5
			c0.5-0.7,1.3-1.3,2.1-1.5c0.8-0.2,1.8-0.1,2.6,0.3c1.6,0.7,2.3,1.9,2.8,1.8c0.2-0.1,0.4-0.6,0.1-1.3
			C750.7,638.8,750,637.9,748.9,637.4"/>
		<g opacity="0.6" clip-path="url(#heroSvg_SVGID_4_)">
			<g>
				<defs>
					<rect id="SVGID_5_" x="608.2" y="25.8" width="81.7" height="66.4"/>
				</defs>
				<clipPath id="heroSvg_SVGID_6_">
					<use xlink:href="#SVGID_5_"  overflow="visible"/>
				</clipPath>
				<path clip-path="url(#heroSvg_SVGID_6_)" fill="#B1BCCD" d="M662.1,33.6l-39.8,17.5c-1.1,0.5-1.7,1.4-1.5,2.1c0.3,0.7,1.4,0.8,2.5,0.3
					l39.5-18.2c0.8-0.3,1.2-1,1-1.5C663.7,33.3,662.9,33.2,662.1,33.6"/>
				<path clip-path="url(#heroSvg_SVGID_6_)" fill="#B1BCCD" d="M677.2,65.2l-39.8,17.5c-1.1,0.5-1.7,1.4-1.5,2.1c0.3,0.7,1.4,0.8,2.5,0.3
					L678,66.8c0.8-0.3,1.2-1,1-1.5C678.8,64.9,678,64.8,677.2,65.2"/>
				<path clip-path="url(#heroSvg_SVGID_6_)" fill="#B1BCCD" d="M609.7,59.1l5.6-7.8c0.1-0.2-0.2-0.7-0.8-1.1c-0.6-0.4-1.2-0.5-1.3-0.3
					l-5,8.2c-0.1,0.2,0.2,0.5,0.6,0.8C609.2,59.1,609.6,59.2,609.7,59.1"/>
				<path clip-path="url(#heroSvg_SVGID_6_)" fill="#B1BCCD" d="M618.8,59.1L609,57c-0.3,0-0.6,0.5-0.7,1.2c-0.1,0.7,0,1.3,0.3,1.4l9.8,1.3
					c0.2,0,0.4-0.3,0.5-0.8C619,59.6,618.9,59.1,618.8,59.1"/>
				<path clip-path="url(#heroSvg_SVGID_6_)" fill="#B1BCCD" d="M674.2,26.5l-9.5-1.2c-0.3,0-0.5,0.5-0.6,1.3c-0.1,0.7,0.1,1.3,0.4,1.3
					l9.6,0.5c0.2,0,0.4-0.4,0.4-0.9C674.5,26.9,674.4,26.5,674.2,26.5"/>
				<path clip-path="url(#heroSvg_SVGID_6_)" fill="#B1BCCD" d="M670,36.2l5.2-8.5c0.1-0.2-0.3-0.7-0.9-1.1c-0.6-0.3-1.2-0.4-1.4-0.2
					l-4.5,8.9c-0.1,0.2,0.2,0.5,0.6,0.7C669.4,36.3,669.9,36.4,670,36.2"/>
				<path clip-path="url(#heroSvg_SVGID_6_)" fill="#B1BCCD" d="M617.5,75.3l5.6-7.8c0.1-0.2-0.2-0.7-0.8-1.1c-0.6-0.4-1.2-0.5-1.3-0.3
					l-5,8.2c-0.1,0.2,0.2,0.5,0.6,0.8C617,75.4,617.4,75.5,617.5,75.3"/>
				<path clip-path="url(#heroSvg_SVGID_6_)" fill="#B1BCCD" d="M626.5,75.3l-9.7-2.1c-0.3,0-0.6,0.5-0.7,1.2c-0.1,0.7,0,1.3,0.3,1.4
					l9.8,1.3c0.2,0,0.4-0.3,0.5-0.8C626.8,75.8,626.7,75.4,626.5,75.3"/>
				<path clip-path="url(#heroSvg_SVGID_6_)" fill="#B1BCCD" d="M682,42.7l-9.5-1.2c-0.3,0-0.5,0.5-0.6,1.3c-0.1,0.7,0.1,1.3,0.4,1.3
					l9.6,0.5c0.2,0,0.4-0.4,0.4-0.9C682.3,43.1,682.2,42.7,682,42.7"/>
				<path clip-path="url(#heroSvg_SVGID_6_)" fill="#B1BCCD" d="M677.7,52.4l5.2-8.5c0.1-0.2-0.3-0.7-0.9-1.1c-0.6-0.3-1.2-0.4-1.4-0.2
					l-4.5,8.9c-0.1,0.2,0.2,0.5,0.6,0.7C677.2,52.6,677.6,52.6,677.7,52.4"/>
				<path clip-path="url(#heroSvg_SVGID_6_)" fill="#B1BCCD" d="M624.8,90.7l5.6-7.8c0.1-0.2-0.2-0.7-0.8-1.1c-0.6-0.4-1.2-0.5-1.3-0.3
					l-5,8.2c-0.1,0.2,0.2,0.5,0.6,0.8C624.3,90.7,624.7,90.8,624.8,90.7"/>
				<path clip-path="url(#heroSvg_SVGID_6_)" fill="#B1BCCD" d="M633.9,90.7l-9.7-2.1c-0.3,0-0.6,0.5-0.7,1.2c-0.1,0.7,0,1.3,0.3,1.4
					l9.8,1.3c0.2,0,0.4-0.3,0.5-0.8C634.1,91.1,634.1,90.7,633.9,90.7"/>
				<path clip-path="url(#heroSvg_SVGID_6_)" fill="#B1BCCD" d="M689.3,58l-9.5-1.2c-0.3,0-0.5,0.5-0.6,1.3c-0.1,0.7,0.1,1.3,0.4,1.3
					l9.6,0.5c0.2,0,0.4-0.4,0.4-0.9C689.6,58.5,689.5,58,689.3,58"/>
				<path clip-path="url(#heroSvg_SVGID_6_)" fill="#B1BCCD" d="M685.1,67.8l5.2-8.5c0.1-0.2-0.3-0.7-0.9-1.1c-0.6-0.3-1.2-0.4-1.4-0.2
					l-4.5,8.9c-0.1,0.2,0.2,0.5,0.6,0.7C684.6,67.9,685,67.9,685.1,67.8"/>
				<path clip-path="url(#heroSvg_SVGID_6_)" fill="#B1BCCD" d="M642,62.1l-14.5,6.8c-0.4,0.2-0.5,0.9-0.1,1.5c0.3,0.6,0.9,1,1.3,0.8
					l14.2-7.5c0.3-0.1,0.3-0.6,0.1-1.1C642.7,62.2,642.3,61.9,642,62.1"/>
				<path clip-path="url(#heroSvg_SVGID_6_)" fill="#B1BCCD" d="M668.7,51L649,59.3c-0.5,0.2-0.7,1-0.5,1.6c0.3,0.7,1,1,1.5,0.8l19.4-9
					c0.4-0.2,0.5-0.7,0.3-1.1C669.5,51.1,669.1,50.9,668.7,51"/>
			</g>
		</g>
		<path clip-path="url(#heroSvg_SVGID_4_)" fill="#76CECE" d="M849.7,25.2c-2.9-2.5-6.3-4.4-10-5.8c-0.3-0.1-0.7,0.4-0.9,1.1
			c-0.2,0.7-0.2,1.3,0.1,1.4c3.4,1,6.7,2.6,9.6,4.7c0.2,0.1,0.6-0.1,0.9-0.5C849.8,25.8,849.9,25.4,849.7,25.2"/>
		<path clip-path="url(#heroSvg_SVGID_4_)" fill="#76CECE" d="M846.8,13.7c-3.6,0.3-6.9,2.5-8.6,5.8c-0.1,0.3,0.3,0.7,1,1
			c0.7,0.3,1.3,0.3,1.4,0.1c1-2.5,3.6-4.6,6.4-5c0.2,0,0.3-0.4,0.2-0.9C847.2,14.1,847,13.7,846.8,13.7"/>
		<path clip-path="url(#heroSvg_SVGID_4_)" fill="#76CECE" d="M846.1,15c1.1,3.4,1.7,6.9,1.8,10.5c0,0.3,0.6,0.5,1.3,0.5
			c0.7,0,1.3-0.3,1.3-0.6c-0.4-3.8-1.3-7.4-2.7-10.9c-0.1-0.2-0.5-0.2-1,0C846.4,14.5,846,14.8,846.1,15"/>
		<path clip-path="url(#heroSvg_SVGID_4_)" fill="#76CECE" d="M854.4,20.6c2.4,0.1,4.8,1,6.7,2.5c1.9,1.5,3.3,3.5,4.1,5.8
			c0.8,2.3,0.8,4.8,0.1,7.1c-0.7,2.3-2.1,4.4-3.9,5.9c-3.6,3.1-9.3,3.4-13.3,0.8c-2-1.3-3.5-3.2-4.4-5.4c-0.8-2.2-0.9-4.6-0.3-6.9
			c0.4-1.5,0.6-2.8-0.1-3.2c-0.6-0.4-1.9,0.7-2.4,2.5c-0.7,2.8-0.6,5.8,0.5,8.5c1.1,2.7,3,5,5.4,6.5c4.9,3.1,11.6,2.6,16-1.1
			c2.2-1.8,3.8-4.3,4.5-7c0.8-2.7,0.7-5.7-0.2-8.3c-0.9-2.7-2.6-5.1-4.8-6.7c-2.3-1.7-5-2.6-7.8-2.8c-1.3-0.1-2.3,0.5-2.2,1
			C852.3,20.3,853.3,20.6,854.4,20.6"/>
		<path clip-path="url(#heroSvg_SVGID_4_)" fill="#76CECE" d="M854.3,32.2l-10.2-6c-0.3-0.2-0.8,0.2-1.1,0.9c-0.3,0.6-0.4,1.3-0.1,1.4
			l10.5,5.4c0.2,0.1,0.6-0.2,0.8-0.6C854.5,32.8,854.5,32.3,854.3,32.2"/>
		<path clip-path="url(#heroSvg_SVGID_4_)" fill="#76CECE" d="M854.6,32.9l-1.2-13c0-0.4-0.7-0.6-1.4-0.5c-0.7,0.1-1.3,0.4-1.2,0.8l1.9,13
			c0,0.3,0.5,0.4,1,0.3C854.3,33.4,854.7,33.1,854.6,32.9"/>
		<path clip-path="url(#heroSvg_SVGID_4_)" fill="#76CECE" d="M877.1,48.7c-4.4,20.1-9.2,40.1-14.5,60c-0.4,1.7-0.2,3.1,0.5,3.3
			c0.7,0.2,1.6-1,2-2.7c5-20,9.6-40.1,13.8-60.3c0.2-1.2,0.1-2.2-0.4-2.3C877.9,46.7,877.3,47.5,877.1,48.7"/>
		<path clip-path="url(#heroSvg_SVGID_4_)" fill="#76CECE" d="M893.6,49.7L879.1,46c-0.4-0.1-0.9,0.4-1,1.1c-0.2,0.7,0,1.3,0.4,1.4l14.7,2.9
			c0.3,0.1,0.6-0.3,0.7-0.8C894,50.2,893.9,49.8,893.6,49.7"/>
		<path clip-path="url(#heroSvg_SVGID_4_)" fill="#76CECE" d="M892.7,58.2l1.7-6.8c0-0.2-0.5-0.5-1.2-0.6c-0.7-0.1-1.3-0.1-1.3,0.1l-0.9,7
			c0,0.1,0.4,0.3,0.9,0.4C892.2,58.3,892.7,58.3,892.7,58.2"/>
		<path clip-path="url(#heroSvg_SVGID_4_)" fill="#76CECE" d="M891,57.1l-10.7-2.8c-0.3-0.1-0.7,0.4-0.8,1.1c-0.2,0.7,0,1.3,0.3,1.4
			l10.8,2.1c0.2,0,0.5-0.3,0.6-0.8C891.3,57.5,891.2,57.1,891,57.1"/>
		<path clip-path="url(#heroSvg_SVGID_4_)" fill="#76CECE" d="M918.5,106.4l-15-3.3c-0.4-0.1-0.9,0.4-1,1.1c-0.1,0.7,0.1,1.3,0.5,1.4
			l15.1,2.5c0.3,0.1,0.6-0.3,0.7-0.8C918.9,106.9,918.7,106.4,918.5,106.4"/>
		<path clip-path="url(#heroSvg_SVGID_4_)" fill="#76CECE" d="M916.6,111l-19-4.7c-0.5-0.1-1.1,0.4-1.2,1.1c-0.2,0.7,0.1,1.4,0.7,1.5
			l19.2,3.9c0.4,0.1,0.8-0.2,0.9-0.7C917.2,111.5,917,111,916.6,111"/>
		<path clip-path="url(#heroSvg_SVGID_4_)" fill="#76CECE" d="M889.6,83l-2.7,10.2c-0.1,0.3,0.5,0.6,1.2,0.8c0.7,0.2,1.3,0.1,1.4-0.2l2-10.4
			c0-0.2-0.3-0.5-0.8-0.6C890.1,82.7,889.7,82.8,889.6,83"/>
		<path clip-path="url(#heroSvg_SVGID_4_)" fill="#76CECE" d="M917.5,99.8l-27.6-6.9c-0.8-0.2-1.5,0.2-1.7,0.9c-0.2,0.7,0.3,1.4,1.1,1.6
			l27.8,6.1c0.5,0.1,1.1-0.2,1.2-0.7C918.4,100.4,918.1,99.9,917.5,99.8"/>
		<path clip-path="url(#heroSvg_SVGID_4_)" fill="#76CECE" d="M919.6,88.9l-27.5-6.8c-0.8-0.2-1.5,0.2-1.7,0.9c-0.2,0.7,0.3,1.4,1.1,1.6
			l27.7,6c0.5,0.1,1.1-0.2,1.2-0.7C920.5,89.5,920.2,89,919.6,88.9"/>
		<path clip-path="url(#heroSvg_SVGID_4_)" fill="#76CECE" d="M920.3,89.6L917,99.9c-0.1,0.3,0.4,0.7,1.1,0.9c0.7,0.2,1.3,0.1,1.4-0.2
			l2.5-10.5c0.1-0.2-0.3-0.5-0.8-0.6C920.8,89.4,920.3,89.4,920.3,89.6"/>
		<path clip-path="url(#heroSvg_SVGID_4_)" fill="#76CECE" d="M951.2,40.5c-2.2,13.5-5,27-8.6,40.2c-1.8,6.6-3.7,13.2-5.8,19.7
			c-2.1,6.6-4.1,13.2-4.9,20.3c-0.2,2.3,0.3,4.2,1,4.2c0.7,0,1.3-1.8,1.6-4c0.7-6.7,2.6-13.3,4.6-19.8c2-6.6,4-13.2,5.7-19.9
			c3.5-13.3,6.2-26.9,8.2-40.5c0.2-1.6,0-2.9-0.5-3C952,37.7,951.4,38.9,951.2,40.5"/>
		<path clip-path="url(#heroSvg_SVGID_4_)" fill="#76CECE" d="M983.9,44.8L954,37.3c-0.8-0.2-1.6,0.2-1.8,0.9c-0.2,0.7,0.4,1.4,1.2,1.6
			l30.1,6.8c0.6,0.1,1.2-0.1,1.3-0.6C984.9,45.4,984.5,44.9,983.9,44.8"/>
		<path clip-path="url(#heroSvg_SVGID_4_)" fill="#76CECE" d="M980.3,56.9L952,50.5c-0.8-0.2-1.5,0.3-1.7,1c-0.1,0.7,0.4,1.4,1.1,1.6
			l28.4,5.6c0.6,0.1,1.1-0.2,1.2-0.7S980.8,57,980.3,56.9"/>
		<path clip-path="url(#heroSvg_SVGID_4_)" fill="#76CECE" d="M981.9,45.9l-2.7,11.3c-0.1,0.3,0.5,0.7,1.2,0.8c0.7,0.1,1.3,0,1.4-0.3l2-11.5
			c0-0.2-0.3-0.5-0.8-0.6C982.4,45.6,982,45.7,981.9,45.9"/>
		<path clip-path="url(#heroSvg_SVGID_4_)" fill="#76CECE" d="M920.3,53l-3.4,12.1c-0.1,0.3,0.4,0.7,1.1,0.9c0.7,0.2,1.3,0,1.4-0.3l2.6-12.3
			c0.1-0.2-0.3-0.5-0.8-0.6S920.3,52.8,920.3,53"/>
		<path clip-path="url(#heroSvg_SVGID_4_)" fill="#76CECE" d="M945.4,71l-26-6c-0.7-0.2-1.4,0.3-1.6,1c-0.2,0.7,0.3,1.4,1,1.6l26.2,5.3
			c0.5,0.1,1-0.2,1.1-0.7C946.2,71.6,945.9,71.1,945.4,71"/>
		<path clip-path="url(#heroSvg_SVGID_4_)" fill="#76CECE" d="M947.3,58.1l-24.9-6.1c-0.7-0.2-1.4,0.3-1.5,1c-0.2,0.7,0.3,1.4,1,1.6
			l25.1,5.4c0.5,0.1,1-0.2,1.1-0.7C948.1,58.7,947.8,58.2,947.3,58.1"/>
		<path clip-path="url(#heroSvg_SVGID_4_)" fill="#76CECE" d="M969.8,67.6l-15.1-3.8c-0.4-0.1-0.9,0.4-1,1.1c-0.2,0.7,0.1,1.3,0.5,1.4
			l15.2,3.1c0.3,0.1,0.6-0.3,0.7-0.8C970.2,68.2,970.1,67.7,969.8,67.6"/>
		<path clip-path="url(#heroSvg_SVGID_4_)" fill="#76CECE" d="M962.3,69.6l-8.4-2.2c-0.2,0-0.5,0.5-0.7,1.2c-0.1,0.7-0.1,1.3,0.2,1.4
			l8.6,1.4c0.2,0,0.4-0.3,0.5-0.8C962.5,70.1,962.5,69.7,962.3,69.6"/>
		<path clip-path="url(#heroSvg_SVGID_4_)" fill="#76CECE" d="M972.5,76.9c-6.3-2.1-12.8-3.5-19.5-4.2c-0.6-0.1-1,0.5-1.1,1.2
			c-0.1,0.7,0.3,1.3,0.9,1.4c6.5,0.5,12.9,1.6,19.2,3.4c0.4,0.1,0.8-0.2,0.9-0.7C973,77.4,972.9,77,972.5,76.9"/>
		<path clip-path="url(#heroSvg_SVGID_4_)" fill="#76CECE" d="M934.1,17.2l-20.4-4.4c-0.6-0.1-1.1,0.3-1.2,0.8c-0.1,0.6,0.2,1.1,0.8,1.2
			l20.5,3.8c0.4,0.1,0.8-0.2,0.9-0.6C934.8,17.6,934.5,17.3,934.1,17.2"/>
		<path clip-path="url(#heroSvg_SVGID_4_)" fill="#76CECE" d="M906.6,13.1l4.4-1.3c0.1,0,0-0.5-0.2-1.1c-0.2-0.5-0.5-1-0.6-0.9l-4.2,1.9
			c-0.1,0,0,0.4,0.1,0.8C906.4,12.8,906.6,13.1,906.6,13.1"/>
		<path clip-path="url(#heroSvg_SVGID_4_)" fill="#76CECE" d="M910.3,15.1l-3.1-3.6c-0.1-0.1-0.5,0.2-0.9,0.6c-0.4,0.4-0.7,0.8-0.6,0.9
			l3.6,3.2c0.1,0.1,0.4-0.1,0.6-0.4C910.2,15.4,910.3,15.1,910.3,15.1"/>
		<path clip-path="url(#heroSvg_SVGID_4_)" fill="#76CECE" d="M941,17.9l-3.3-3.2c-0.1-0.1-0.5,0.2-0.9,0.7c-0.4,0.4-0.6,0.9-0.5,1L940,19
			c0.1,0.1,0.3-0.1,0.6-0.5C940.9,18.2,941,17.9,941,17.9"/>
		<path clip-path="url(#heroSvg_SVGID_4_)" fill="#76CECE" d="M936.5,21l4.4-1.7c0.1-0.1,0-0.5-0.2-1.1c-0.3-0.5-0.6-0.9-0.7-0.9l-4.2,2.3
			c-0.1,0,0,0.4,0.2,0.7C936.2,20.7,936.4,21,936.5,21"/>
		<path clip-path="url(#heroSvg_SVGID_4_)" fill="#76CECE" d="M850.1,76.3L835,72.4c-0.4-0.1-0.9,0.4-1,1.1c-0.2,0.7,0.1,1.3,0.5,1.4
			l15.2,3.1c0.3,0.1,0.6-0.3,0.7-0.8C850.5,76.8,850.4,76.3,850.1,76.3"/>
		<path clip-path="url(#heroSvg_SVGID_4_)" fill="#76CECE" d="M842.6,78.2l-8.4-2.2c-0.2,0-0.5,0.5-0.7,1.2c-0.1,0.7-0.1,1.3,0.2,1.4
			l8.6,1.4c0.2,0,0.4-0.3,0.5-0.8C842.8,78.7,842.8,78.3,842.6,78.2"/>
		<path clip-path="url(#heroSvg_SVGID_4_)" fill="#76CECE" d="M852.8,85.5c-6.3-2.1-12.8-3.5-19.5-4.2c-0.6-0.1-1,0.5-1.1,1.2
			c-0.1,0.7,0.3,1.3,0.9,1.4c6.5,0.5,12.9,1.6,19.2,3.4c0.4,0.1,0.8-0.2,0.9-0.7C853.3,86.1,853.2,85.6,852.8,85.5"/>
		<path clip-path="url(#heroSvg_SVGID_4_)" fill="#76CECE" d="M974.8,90.4c-4.4,20.1-9.2,40.1-14.5,60c-0.4,1.7-0.2,3.1,0.5,3.3
			c0.7,0.2,1.6-1,2-2.7c5-20,9.6-40.1,13.8-60.3c0.2-1.2,0.1-2.2-0.4-2.3C975.6,88.4,975,89.3,974.8,90.4"/>
		<path clip-path="url(#heroSvg_SVGID_4_)" fill="#76CECE" d="M991.3,91.4l-14.5-3.7c-0.4-0.1-0.9,0.4-1,1.1c-0.2,0.7,0,1.3,0.4,1.4
			l14.7,2.9c0.3,0.1,0.6-0.3,0.7-0.8C991.7,91.9,991.6,91.5,991.3,91.4"/>
		<path clip-path="url(#heroSvg_SVGID_4_)" fill="#76CECE" d="M990.4,99.9l1.7-6.8c0-0.2-0.5-0.5-1.2-0.6c-0.7-0.1-1.3-0.1-1.3,0.1l-0.9,7
			c0,0.1,0.4,0.3,0.9,0.4C989.9,100.1,990.4,100,990.4,99.9"/>
		<path clip-path="url(#heroSvg_SVGID_4_)" fill="#76CECE" d="M988.7,98.8L978,96c-0.3-0.1-0.7,0.4-0.8,1.1c-0.2,0.7,0,1.3,0.3,1.4l10.8,2.1
			c0.2,0,0.5-0.3,0.6-0.8C989,99.3,988.9,98.8,988.7,98.8"/>
		<path clip-path="url(#heroSvg_SVGID_4_)" fill="#76CECE" d="M930.7,22.6l-15.1-3.8c-0.4-0.1-0.9,0.4-1,1.1c-0.2,0.7,0.1,1.3,0.5,1.4
			l15.2,3.1c0.3,0.1,0.6-0.3,0.7-0.8C931.1,23.1,931,22.6,930.7,22.6"/>
		<path clip-path="url(#heroSvg_SVGID_4_)" fill="#76CECE" d="M930,32.2l-8.4-2.2c-0.2,0-0.5,0.5-0.7,1.2c-0.1,0.7-0.1,1.3,0.2,1.4l8.6,1.4
			c0.2,0,0.4-0.3,0.5-0.8C930.2,32.6,930.2,32.2,930,32.2"/>
		<path clip-path="url(#heroSvg_SVGID_4_)" fill="#76CECE" d="M937.5,28.8c-6.3-2.1-12.8-3.5-19.5-4.2c-0.6-0.1-1,0.5-1.1,1.2
			c-0.1,0.7,0.3,1.3,0.9,1.4c6.5,0.5,12.9,1.6,19.2,3.4c0.4,0.1,0.8-0.2,0.9-0.7C938,29.4,937.8,28.9,937.5,28.8"/>
		<path clip-path="url(#heroSvg_SVGID_4_)" fill="#76CECE" d="M903.7,140.5l-48.3-12.7c-0.4-0.1-0.9,0.4-1,1.1c-0.2,0.7,0.1,1.3,0.5,1.4
			l48.4,12c0.3,0.1,0.6-0.3,0.7-0.8C904.1,141,904,140.6,903.7,140.5"/>
		<path clip-path="url(#heroSvg_SVGID_4_)" fill="#76CECE" d="M885.4,141.6l-25-6.6c-0.4-0.1-0.9,0.4-1,1.1c-0.2,0.7,0.1,1.3,0.5,1.4
			l25.1,5.8c0.3,0.1,0.6-0.3,0.7-0.8C885.9,142.1,885.7,141.7,885.4,141.6"/>
		<path clip-path="url(#heroSvg_SVGID_4_)" fill="#76CECE" d="M888.3,142.5l25.1,6.1c0.4,0.1,0.6,0.8,0.4,1.5c-0.2,0.7-0.7,1.2-1.1,1
			l-24.9-6.8c-0.3-0.1-0.4-0.5-0.3-1C887.6,142.7,888,142.4,888.3,142.5"/>
		<path clip-path="url(#heroSvg_SVGID_4_)" fill="#76CECE" d="M893,149.2l-25-6.6c-0.4-0.1-0.9,0.4-1,1.1c-0.2,0.7,0.1,1.3,0.5,1.4l25.1,5.8
			c0.3,0.1,0.6-0.3,0.7-0.8C893.5,149.7,893.3,149.2,893,149.2"/>
		<g opacity="0.5" clip-path="url(#heroSvg_SVGID_4_)">
			<g>
				<defs>
					<rect id="SVGID_7_" x="839.2" y="399.9" width="145.5" height="80.7"/>
				</defs>
				<clipPath id="heroSvg_SVGID_8_">
					<use xlink:href="#SVGID_7_"  overflow="visible"/>
				</clipPath>
				<path clip-path="url(#heroSvg_SVGID_8_)" fill="#B1BCCD" d="M854.9,443c-1.5-1.6-3.5-2.6-5.7-3c-2.1-0.3-4.5,0-6.3,1.3
					c-1.9,1.3-3.1,3.2-3.7,5.3c-0.6,2.1-0.5,4.5,0.5,6.5c1,2.1,2.8,3.6,4.8,4.5c2,0.8,4.4,1,6.6,0.4c2.2-0.6,4.1-2.3,5.2-4.2
					c1.1-2,1.6-4.3,1.2-6.5c-0.1-0.8-0.5-1.4-0.9-1.7c-0.4-0.4-0.8-0.5-1.1-0.3c-0.6,0.4-0.7,1.4-0.5,2.4c0.6,3.3-1.3,7.1-4.5,8
					c-1.6,0.5-3.4,0.4-5-0.2c-1.6-0.6-3-1.8-3.7-3.3c-1.5-3-0.4-7.3,2.4-9.2c2.8-2,7.2-1.3,9.5,1.2c0.5,0.6,1.2,1,1.7,0.7
					C855.6,444.7,855.6,443.8,854.9,443"/>
				<path clip-path="url(#heroSvg_SVGID_8_)" fill="#B1BCCD" d="M965.6,445.6c0.4,2.2,1.5,4.3,3.1,5.8c1.6,1.5,3.8,2.6,6.1,2.7
					c4.6,0.2,9-3.1,10.1-7.7c0.5-2.3,0-4.7-1.2-6.7c-1.2-2-3-3.6-5.2-4.4c-1.1-0.4-2.3-0.5-3.5-0.4c-1.2,0.1-2.3,0.4-3.4,1
					c-2.1,1-3.8,2.8-4.8,4.9c-0.3,0.7-0.3,1.5-0.2,2c0.2,0.5,0.5,0.8,0.8,0.9c0.4,0,0.7-0.2,1-0.6c0.3-0.3,0.6-0.8,0.8-1.3
					c1.3-3.2,5.2-5.4,8.5-4.2c1.6,0.5,3.1,1.7,4,3.3c0.9,1.5,1.3,3.4,1,5.1c-0.6,3.5-4.2,6.2-7.8,6.1c-3.6-0.1-6.9-3.2-7.5-6.8
					c-0.1-0.8-0.5-1.5-1-1.6C965.9,443.7,965.4,444.5,965.6,445.6"/>
				<path clip-path="url(#heroSvg_SVGID_8_)" fill="#B1BCCD" d="M862.7,478.8c-2.9,0.8-6.5-0.8-7.6-3.6c-1.2-2.7,0-6.4,2.5-7.9
					c1.2-0.8,2.8-1,4.2-0.8c1.5,0.3,2.9,1,3.8,2.1c1.9,2.1,1.6,5.9-0.2,8c-0.6,0.7-0.9,1.6-0.6,2.2c0.2,0.3,0.6,0.4,1.1,0.4
					c0.5-0.1,1.1-0.4,1.5-0.9c1.3-1.6,2-3.6,2.1-5.6c0.1-2-0.6-4.1-2-5.7c-1.4-1.5-3.3-2.5-5.2-2.8c-2-0.3-4.1,0-5.8,1.2
					c-1.7,1.1-2.9,2.9-3.4,4.8c-0.5,1.9-0.5,4,0.3,5.8c0.8,1.9,2.4,3.3,4.2,4c1.8,0.8,3.8,1,5.7,0.5c0.9-0.3,1.4-1,1.1-1.4
					C864.1,478.7,863.4,478.6,862.7,478.8"/>
				<path clip-path="url(#heroSvg_SVGID_8_)" fill="#B1BCCD" d="M969.4,423.5c-1.1-3.1-0.2-7,2.5-8.9c1.3-1,3-1.5,4.6-1.5
					c1.6,0,3.1,0.6,4.3,1.7c1.2,1.1,1.9,2.6,2.1,4.2c0.2,1.5-0.3,3.1-1.3,4.3c-1,1.2-2.4,2-3.9,2.2c-1.5,0.2-3.1-0.3-4.3-1.2
					c-0.8-0.6-1.7-0.9-2.3-0.5c-0.3,0.2-0.4,0.6-0.3,1.1c0.1,0.5,0.5,1.1,1.1,1.5c1.8,1.3,4,1.9,6.2,1.6c2.2-0.3,4.2-1.5,5.5-3.2
					c1.3-1.7,2-3.9,1.7-6.1c-0.3-2.1-1.3-4.1-2.9-5.5c-1.5-1.4-3.7-2.3-5.8-2.2c-2.1,0-4.1,0.7-5.8,2c-1.7,1.3-2.8,3.1-3.3,5.1
					c-0.5,2-0.4,4.1,0.3,6c0.3,0.9,1.1,1.4,1.5,1.1C969.6,424.9,969.6,424.2,969.4,423.5"/>
				<path clip-path="url(#heroSvg_SVGID_8_)" fill="#B1BCCD" d="M966.4,420.3c-8,0.6-15.6,3.3-22.7,6.9c-0.6,0.3-0.8,1.1-0.4,1.7
					c0.3,0.6,1.1,0.9,1.6,0.6c6.7-3.7,14-6.6,21.6-7.4c0.4,0,0.8-0.5,0.7-1C967.2,420.6,966.8,420.3,966.4,420.3"/>
				<path clip-path="url(#heroSvg_SVGID_8_)" fill="#B1BCCD" d="M936.7,431.7c-10.8,7-20.8,15.1-31.3,22.3c-5.3,3.6-10.6,7-16.3,9.8
					c-5.6,2.8-11.6,5.1-17.7,6c-2,0.2-3.6,1-3.6,1.8c0,0.7,1.8,1.1,4,0.8c6.5-1,12.7-3.5,18.4-6.4c5.8-3,11.2-6.5,16.5-10.2
					c10.5-7.4,20.4-15.6,31-22.5c1.2-0.8,2-1.8,1.8-2.2C939.2,430.6,938,430.9,936.7,431.7"/>
				<path clip-path="url(#heroSvg_SVGID_8_)" fill="#B1BCCD" d="M962.8,442c-5,0.2-9.9-2-13.8-5.1c-4-3.2-7.2-7.3-10.4-11.4
					c-3.2-4.1-6.6-8.3-11-11.5c-2.2-1.6-4.6-3-7.2-3.9c-2.6-0.8-5.4-1.2-8.2-1c-5.5,0.3-10.7,2.5-15.2,5.4c-4.5,3-8.4,6.7-12,10.4
					c-3.7,3.8-7.2,7.6-11.1,11c-3.9,3.3-8.2,6.3-12.9,7.9c-1.6,0.5-3,1-4,1.4c-1,0.4-1.7,0.8-1.7,1.1c0,0.4,0.8,0.6,2,0.7
					c1.2,0,2.9-0.2,4.6-0.8c5.2-1.8,9.7-5,13.7-8.5c4-3.5,7.5-7.5,11.2-11.2c3.6-3.7,7.3-7.4,11.6-10.2c4.2-2.8,9.1-4.8,14.1-5.1
					c2.5-0.2,5,0.1,7.3,0.9c2.4,0.8,4.6,2,6.6,3.5c4.1,3,7.4,7,10.7,11.1c3.3,4.1,6.6,8.3,10.8,11.6c2.1,1.7,4.5,3.1,7,4
					c2.5,1,5.3,1.5,8.1,1.4c1.3,0,2.4-0.4,3.2-0.8c0.8-0.4,1.1-0.8,1.1-1c-0.1-0.2-0.6-0.3-1.4-0.2C964.9,441.8,963.9,442,962.8,442
					"/>
				<path clip-path="url(#heroSvg_SVGID_8_)" fill="#B1BCCD" d="M869.3,407l11.6,16.2c0.3,0.4,1.1,0.4,1.6,0c0.6-0.4,0.8-1.1,0.4-1.6
					l-12.2-15.7c-0.2-0.3-0.7-0.3-1.2,0C869.2,406.2,869,406.7,869.3,407"/>
				<path clip-path="url(#heroSvg_SVGID_8_)" fill="#B1BCCD" d="M871.7,399.6l-18.6-0.3c-0.5,0-0.9,0.6-0.9,1.3c0,0.7,0.4,1.3,0.9,1.3
					l18.6-0.4c0.4,0,0.7-0.4,0.7-0.9C872.4,400,872.1,399.6,871.7,399.6"/>
				<path clip-path="url(#heroSvg_SVGID_8_)" fill="#B1BCCD" d="M864.1,403.4l-11.3,0.2c-0.3,0-0.5,0.6-0.5,1.3c0,0.7,0.3,1.3,0.6,1.3
					l11.3-0.9c0.2,0,0.4-0.4,0.4-0.9C864.5,403.8,864.3,403.4,864.1,403.4"/>
			</g>
		</g>
		<rect x="825.9" y="491.7" clip-path="url(#heroSvg_SVGID_4_)" fill="#57CED7" width="172.5" height="164.2"/>
		<path clip-path="url(#heroSvg_SVGID_4_)" fill="#33A3AF" d="M838.1,615.8c1.3-2.2,4.6-0.6,6.4,1.1c1.8,1.7,5,3.5,6.5,1.4
			c1.3-1.9-0.8-4.4-0.5-6.7c0.3-2.2,2.7-3.5,5-3.6c2.2-0.1,4.5,0.5,6.7,0.3c4.5-0.4,8-3.8,10.6-7.5c2.6-3.7,4.7-7.8,8.1-10.6
			c3.9-3.2,9.3-4.4,14.1-3.1c2.4,0.6,5.4,1.6,6.9-0.4c1.4-1.9-0.3-4.6-2.3-5.7c-2.1-1.1-4.6-1.4-6.5-2.8c-2.1-1.6-3-4.5-2.8-7.2
			c0.2-2.7,1.2-5.2,2.2-7.8c2.6-6.5,5.5-13.3,11.2-17.3c2.6-1.8,5.6-2.9,8.4-4.5s5.3-3.9,6-7c0.8-3.4-0.8-7.3,0.7-10.4
			c1.7-3.6,6.6-4.4,10.6-4c4,0.4,8.2,1.6,11.9,0.1c4.6-1.8,7.5-7.4,12.4-7.6c3.9-0.2,7,3,9.5,6c3.3,3.9,6.6,7.9,9.9,11.8
			c1.3,1.6,2.7,3.2,3.3,5.2c0.6,2,0.2,4.4-1.5,5.6c-1.6,1.1-3.7,0.9-5.6,1.1c-1.9,0.2-4.1,1.4-4,3.3c0.1,1.3,1.3,2.3,2.3,3.2
			c4.7,4.1,7.3,10.4,6.8,16.6c-0.6,8.4-6.3,15.5-12,21.7c-5.7,6.2-11.9,12.1-19.1,16.5c-7.4,4.5-15.7,7.3-24,10
			c-6.5,2.2-13.7,4.3-19.9,1.4c-2.1-1-3.9-2.5-6-3.5c-4.4-2-10-1.2-13.7,1.9c-4.5,3.8-6.1,10.5-10.8,14.1c-2.5,1.9-5.7,2.8-8.8,3.6
			c-3.6,0.9-7.2,1.9-10.9,1.8c-4.6-0.1-9.2-1.7-12.4-4.9c-1.6-1.6-3-3.7-3.2-6s0.9-4.8,3-5.8"/>
		<g opacity="0.7" clip-path="url(#heroSvg_SVGID_4_)">
			<g>
				<defs>
					<rect id="SVGID_9_" x="909.2" y="568.2" width="53.2" height="24.5"/>
				</defs>
				<clipPath id="heroSvg_SVGID_10_">
					<use xlink:href="#SVGID_9_"  overflow="visible"/>
				</clipPath>
				<polygon clip-path="url(#heroSvg_SVGID_10_)" fill="#23898E" points="909.2,570.9 943,592.7 962.4,568.2 				"/>
			</g>
		</g>
		<polygon clip-path="url(#heroSvg_SVGID_4_)" fill="#4572AC" points="909.2,538.2 940.2,549.2 962.4,534.1 931.7,523.1 		"/>
		<polygon clip-path="url(#heroSvg_SVGID_4_)" fill="#57CED7" points="940.2,549.2 940.5,583.6 962.4,568.2 962.4,534.2 		"/>
		<polygon clip-path="url(#heroSvg_SVGID_4_)" fill="#8AE2F9" points="909.2,538.1 909.2,570.9 940.5,583.6 940.2,549.2 		"/>
		<g opacity="0.7" clip-path="url(#heroSvg_SVGID_4_)">
			<g>
				<defs>
					<rect id="SVGID_11_" x="864.5" y="596.8" width="53.2" height="24.5"/>
				</defs>
				<clipPath id="heroSvg_SVGID_12_">
					<use xlink:href="#SVGID_11_"  overflow="visible"/>
				</clipPath>
				<polygon clip-path="url(#heroSvg_SVGID_12_)" fill="#23898E" points="864.5,599.4 898.3,621.3 917.7,596.8 				"/>
			</g>
		</g>
		<polygon clip-path="url(#heroSvg_SVGID_4_)" fill="#4572AC" points="864.5,566.8 895.5,577.7 917.6,562.6 887,551.6 		"/>
		<polygon clip-path="url(#heroSvg_SVGID_4_)" fill="#57CED7" points="895.5,577.7 895.8,612.2 917.7,596.8 917.7,562.7 		"/>
		<polygon clip-path="url(#heroSvg_SVGID_4_)" fill="#8AE2F9" points="864.5,566.7 864.5,599.4 895.8,612.2 895.5,577.7 		"/>
		<path clip-path="url(#heroSvg_SVGID_4_)" fill="#5CEBF1" d="M846.2,534.6l3.6-7.3l1.8-3.6c0.6-1.2,1.2-2.4,1.8-3.7
			c0.5-1.3,0.9-2.9,0.7-4.6c-0.1-0.8-0.4-1.6-0.9-2.4c-0.5-0.7-1.2-1.4-2-1.7c-1.7-0.7-3.4-0.5-4.9,0.1c-1.5,0.6-2.7,1.6-3.7,2.6
			c-0.7,0.7-0.7,1.6-0.2,2.1c0.5,0.5,1.4,0.3,2-0.3c0.9-0.9,1.8-1.7,2.8-2.1c1-0.4,2.1-0.5,3-0.2c0.8,0.3,1.4,1.2,1.6,2.2
			c0.2,1.1,0,2.2-0.5,3.4c-0.4,1.2-1.1,2.4-1.6,3.6l-1.7,3.7l-3.4,7.4c-0.3,0.6-0.1,1.2,0.3,1.4S845.9,535.2,846.2,534.6"/>
		<path clip-path="url(#heroSvg_SVGID_4_)" fill="#5CEBF1" d="M856.5,531.4c-3.9-0.3-7.8,0.3-11.5,1.7c-0.3,0.1-0.3,0.8,0,1.4
			c0.3,0.7,0.8,1.1,1,1c3.2-1.5,6.8-2.3,10.4-2.2c0.2,0,0.4-0.4,0.4-0.9C856.9,531.8,856.7,531.4,856.5,531.4"/>
		<path clip-path="url(#heroSvg_SVGID_4_)" fill="#5CEBF1" d="M864.1,509.4l0.7,20.9c0,0.6,0.6,1,1.4,1c0.7,0,1.3-0.5,1.2-1.1l-1.5-20.9
			c0-0.4-0.4-0.7-1-0.7C864.5,508.6,864.1,509,864.1,509.4"/>
		<path clip-path="url(#heroSvg_SVGID_4_)" fill="#5CEBF1" d="M858.8,525.8c1.3-5.6,3.5-11,6.5-15.9c0.2-0.4-0.1-1-0.7-1.4
			c-0.6-0.4-1.3-0.3-1.6,0.1c-2.8,5.3-4.9,10.9-6,16.8c-0.1,0.3,0.3,0.7,0.8,0.8C858.2,526.3,858.7,526.1,858.8,525.8"/>
		<path clip-path="url(#heroSvg_SVGID_4_)" fill="#5CEBF1" d="M868.5,520.9l-10.7,3.8c-0.3,0.1-0.3,0.7-0.1,1.4c0.3,0.7,0.7,1.1,1,1
			l10.4-4.5c0.2-0.1,0.2-0.5,0-1C869,521.2,868.7,520.9,868.5,520.9"/>
		<path clip-path="url(#heroSvg_SVGID_4_)" fill="#5CEBF1" d="M878.4,509.8l-5.9,19.3c-0.2,0.5,0.3,1.1,1,1.3c0.7,0.2,1.4-0.1,1.5-0.6
			l5.2-19.6c0.1-0.4-0.2-0.8-0.7-0.9C879,509.2,878.5,509.4,878.4,509.8"/>
		<path clip-path="url(#heroSvg_SVGID_4_)" fill="#5CEBF1" d="M891.2,512.5l-7.3,15.6c-0.2,0.4,0.2,1,0.8,1.3c0.7,0.3,1.3,0.2,1.5-0.3
			l6.6-15.9c0.1-0.3-0.1-0.7-0.6-0.9C891.8,512.1,891.3,512.2,891.2,512.5"/>
		<path clip-path="url(#heroSvg_SVGID_4_)" fill="#5CEBF1" d="M892.3,511.9l-7.3-0.9c-0.2,0-0.4,0.6-0.5,1.3c-0.1,0.7,0.1,1.3,0.3,1.3
			l7.4,0.2c0.1,0,0.3-0.4,0.3-0.9C892.5,512.3,892.4,511.9,892.3,511.9"/>
		<path clip-path="url(#heroSvg_SVGID_4_)" fill="#5CEBF1" d="M893,520.1l-7.4-0.7c-0.2,0-0.4,0.6-0.4,1.3c0,0.7,0.1,1.3,0.3,1.3l7.4-0.1
			c0.1,0,0.3-0.4,0.3-0.9C893.2,520.5,893.1,520.1,893,520.1"/>
		<path clip-path="url(#heroSvg_SVGID_4_)" fill="#FFFFFF" d="M933.2,655.7c1.5,4.4,4.3,8.2,7.4,11.7c7,8,15.9,14.4,25.6,18.6
			c0.8,0.3,1.6,0.6,2.4,0.2c0.4-0.2,0.7-0.6,0.9-1c3.8-6.3,7.6-12.8,9.2-19.9c1-4.5,1.1-9.1,1.2-13.7c0.1-5.4,0.2-11.1-2.1-16
			c-0.3-0.6-0.6-1.2-1.2-1.5c-0.5-0.3-1.2-0.2-1.7-0.2c-9.9,0.8-19.9,1.7-28.9,5.8c-1.8,0.8-3.5,1.8-5.2,2.7
			c-1.7,0.9-3.4,1.9-5.1,2.8c-1.2,0.7-4,1.6-4.7,2.7C929.8,649.7,932.6,653.8,933.2,655.7"/>
		<path clip-path="url(#heroSvg_SVGID_4_)" fill="#484746" d="M977.1,633.4c-16.4-1-33.1,4.1-46.3,14c-1.1,0.8-1.6,2-1.1,2.5
			c0.5,0.6,1.7,0.3,2.7-0.5c12.6-9.6,28.7-14.9,44.7-14.2c0.9,0.1,1.7-0.3,1.8-0.8C978.8,633.9,978,633.5,977.1,633.4"/>
		<path clip-path="url(#heroSvg_SVGID_4_)" fill="#484746" d="M967.7,686c-7.8-3.3-15-7.9-21-13.8c-6-5.8-10.9-12.9-14-20.7
			c-0.5-1.3-1.5-2.1-2.1-1.9c-0.7,0.2-0.8,1.5-0.3,2.9c3.4,8.1,8.6,15.3,14.9,21.3c6.3,6,13.8,10.7,21.9,13.9c0.9,0.4,1.8,0.3,2-0.2
			C969.2,687,968.6,686.3,967.7,686"/>
		<path clip-path="url(#heroSvg_SVGID_4_)" fill="#484746" d="M977,636.8c2.2,8.2,2.3,16.8,0.7,25.1c-1.6,8.3-4.9,16.2-9.5,23.2
			c-0.8,1.2-0.9,2.4-0.3,2.9c0.6,0.4,1.7-0.2,2.5-1.4c4.7-7.4,8-15.6,9.5-24.3c1.5-8.6,1.3-17.5-1.1-26c-0.3-1-0.9-1.7-1.4-1.5
			C977,634.9,976.8,635.8,977,636.8"/>
		<path clip-path="url(#heroSvg_SVGID_4_)" fill="#484746" d="M960.4,666.8l-7.8-9c-0.2-0.2-0.8,0-1.4,0.4c-0.5,0.5-0.8,1.1-0.6,1.3l8.3,8.5
			c0.2,0.2,0.6,0,1-0.3C960.3,667.4,960.5,667,960.4,666.8"/>
		<path clip-path="url(#heroSvg_SVGID_4_)" fill="#484746" d="M963.5,645l-5.2,21.9c-0.1,0.6,0.3,1.2,1,1.4s1.4-0.2,1.5-0.8l4.4-22.1
			c0.1-0.4-0.2-0.9-0.7-1C964,644.3,963.6,644.6,963.5,645"/>
		<path clip-path="url(#heroSvg_SVGID_4_)" fill="#484746" d="M927.1,655.4c-1.1-2.6-2-5.3-1.3-7.7c0.6-2.3,2.8-4.2,5.1-4.5
			c0.4-0.1,0.6-0.6,0.6-1.4c0-0.7-0.5-1.3-1.1-1.2c-3.4,0.6-6.1,3.2-6.8,6.5c-0.3,1.6-0.2,3.3,0.2,4.7c0.4,1.5,1,2.9,1.6,4.2
			c0.1,0.3,0.6,0.4,1.1,0.2C927,656.1,927.3,655.7,927.1,655.4"/>
		<path clip-path="url(#heroSvg_SVGID_4_)" fill="#484746" d="M984.7,654.5c1.1-3.3,1.2-7,0.4-10.4c-0.1-0.3-0.7-0.3-1.4-0.1
			c-0.7,0.2-1.2,0.6-1.1,0.8c0.9,2.9,1.1,6.2,0.3,9.2c-0.1,0.2,0.3,0.4,0.8,0.6C984.2,654.8,984.6,654.7,984.7,654.5"/>
		<path clip-path="url(#heroSvg_SVGID_4_)" fill="#484746" d="M929.6,660.4l-1-1.9c0,0-0.5,0.3-1.1,0.7c-0.6,0.4-1,0.8-1,0.9l1.6,1.4
			c0,0,0.4-0.2,0.8-0.5C929.3,660.7,929.6,660.4,929.6,660.4"/>
		<path clip-path="url(#heroSvg_SVGID_4_)" fill="#FFFFFF" d="M668,187.9c-0.2-3.7,0.1-7.7,2.6-10.4c2.5-2.7,7.9-2.5,9,0.9
			c-0.9-13.8-0.9-27.8,2.4-41.3c3.3-13.4,10.3-26.3,21.4-34.6c2.3-1.7,4.8-3.3,7.6-4.1c3.1-1,7.9-3.1,11.2-3
			c14.6,0.5,26.9,2.5,39.1,10.6c12.1,8.1,22.4,24.2,26.4,38.2c1.2,4.3,2,8.8,2.6,13.2c3.3,21.3,5.7,42.9,4.8,64.5
			c-0.3,6-0.8,12.3-3.7,17.6c-4.1,7.4-12,11.8-19.8,15.1c-17.2,7.2-36.9,10.8-54.7,5.1c-10.9-3.4-20.6-10.4-27.6-19.4
			c-3.6-4.6-6-9.6-8.4-14.9c-1-2.3-2.8-3.9-4-6.1c-1.7-3-3.1-6.2-4.3-9.4C669.9,203,668.3,195.5,668,187.9"/>
		<path clip-path="url(#heroSvg_SVGID_4_)" fill="#57CED7" d="M696,295.8c3.2,6.6,9.7,11,14.9,16.2c3.8,3.8,20.7,8.2,23.8,8.6
			c5.5,0.7,9.5,0.7,14.7-1c3.4-1.1,10.5-3.8,13.8-5.3c3.5-1.6,6-4.3,9.1-6.6c4.1-3.1,5.7-4.8,8-9.3c9.3-18.5,14.5-31.4,16.4-46.1
			c1.7-13.2,0-20.5-0.9-32c-1.2,6-4,10.7-8.1,15.2c-2.9,3.2-6.7,5.9-11,6.3c-5.9,0.5-11.2-3.3-15.5-7.2s-8.8-8.4-14.5-9.7
			c-8.3-1.8-16.4,3.6-23.2,8.7c-6.8,5.1-14.8,10.6-23.2,8.8c-3.8-0.8-7.3-3.3-9.4-6.6c-1.7-2.7-2.5-5.9-3.4-9
			c-1-3.4-2.2-6.7-3.6-9.9c-1.4-3.2-2.6-6-4-1.7c-2,6.5,1.5,16.6,1.9,23.3c1.1,15.5,0.5,13.7,3.7,28.9
			C687.4,276.2,691.7,287,696,295.8"/>
		<path clip-path="url(#heroSvg_SVGID_4_)" fill="#42AFB2" d="M790.4,256.1c-1.4,6.8-3.8,13.2-6.3,19.6c-4.7,12.3-9.8,25.2-19.6,34.1
			c-1.9,1.8-4,3.4-5.6,5.4c6.1-1.9,12.3-4.4,16.5-9.2c1.4-1.6,2.5-3.3,3.6-5.1c1.9-3,3.8-6,5.5-9.1c6.4-12.1,8.7-25.9,10.6-39.4
			c1.2-8.6,2.2-17.5,0-25.9c0,0.1-3.3,4.8-3.6,5.6c-0.8,2.4-0.2,4.5-0.1,7C791.8,244.8,791.5,250.5,790.4,256.1"/>
		<path clip-path="url(#heroSvg_SVGID_4_)" fill="#D2F4F7" d="M707.6,99.5c0,0,66.3-22,83.6,68.8c0,0,1.4,27.5-1.6,38.3
			c0,0-2.4,6.6,0.8,25.2l4.4-4.7c0,0,1.3-0.5,1.1-7.3c0-0.9,1.1-0.6,1.7-1.5c4.1-5.8,14.4-14.9,12.9-35.6c-0.4-5.1-6.3-7.9-6.3-7.9
			l-9.8,3.9c0,0,2.1-23.8-0.8-34.5c-2.3-8.5-9.9-26.5-15.4-33.4c-4.5-5.6-19.1-15.4-25.7-18.1C730.5,83.5,707.6,99.5,707.6,99.5"/>
		<path clip-path="url(#heroSvg_SVGID_4_)" fill="#484746" d="M708,181.1l0.5,4.8c0,0.1,0.6,0.1,1.3,0c0.7-0.1,1.3-0.3,1.2-0.5l-1.2-4.7
			c0-0.1-0.4-0.1-0.9,0C708.4,180.9,708,181,708,181.1"/>
		<path clip-path="url(#heroSvg_SVGID_4_)" fill="#484746" d="M765.9,180l-0.6,5.2c0,0.1,0.6,0.3,1.3,0.3c0.7,0,1.3-0.1,1.3-0.2l-0.2-5.2
			c0-0.1-0.4-0.2-0.9-0.2S765.9,179.9,765.9,180"/>
		<path clip-path="url(#heroSvg_SVGID_4_)" fill="#484746" d="M720.5,166.2c-9.7-4.3-21.8-2.6-30.1,4.3c-0.7,0.6-0.8,1.5-0.3,2
			c0.5,0.5,1.4,0.5,2,0c7.3-6.4,18.5-8.3,27.7-4.6c0.5,0.2,1.1,0,1.4-0.4C721.4,167,721.1,166.4,720.5,166.2"/>
		<path clip-path="url(#heroSvg_SVGID_4_)" fill="#484746" d="M784.1,171c-8-5.4-18.4-6.8-27.7-3.7c-0.8,0.3-1.2,1-0.9,1.7
			c0.3,0.7,1.1,1,1.7,0.7c8.3-3.1,18.2-2.1,25.8,2.8c0.4,0.3,1,0.2,1.3-0.2C784.7,171.9,784.6,171.3,784.1,171"/>
		<path clip-path="url(#heroSvg_SVGID_4_)" fill="#484746" d="M677.6,220c-4.2-8.2-6.9-17.2-8-26.4c-0.3-2.3-0.4-4.6-0.5-6.9
			c-0.1-2.3,0-4.5,0.8-6.4c0.7-1.9,2.3-3.1,4.2-3.1c0.9,0,1.8,0.3,2.5,0.8c0.7,0.5,1.2,1.3,1.5,2.2c0.2,0.6,0.4,1.1,0.6,1.5
			c0.2,0.4,0.5,0.8,0.8,0.9c0.3,0.1,0.8-0.2,1-0.8c0.3-0.6,0.4-1.5,0.1-2.4c-0.4-1.4-1.3-2.6-2.5-3.5c-1.2-0.9-2.6-1.3-4.1-1.3
			c-1.4,0-2.9,0.5-4,1.4c-1.1,0.9-1.9,2.1-2.4,3.3c-1,2.5-1,5-0.9,7.4c0.1,2.4,0.3,4.7,0.6,7.1c1.2,9.4,4.1,18.6,8.6,27
			c0.5,1,1.3,1.6,1.7,1.3C678.2,221.9,678.1,221,677.6,220"/>
		<path clip-path="url(#heroSvg_SVGID_4_)" fill="#484746" d="M798,219.1c7.1-6.6,11.8-15.6,13.4-25.2c0.4-2.4,0.6-4.8,0.6-7.3
			c0-2.4-0.2-4.9-1.1-7.4c-0.4-1.2-1.1-2.4-2.1-3.4c-0.9-1-2.3-1.8-3.6-2.1c-1.4-0.3-2.8-0.2-4.1,0.1c-1.3,0.4-2.6,1.1-3.6,2.1
			c-0.7,0.6-1,1.5-1.1,2.1c0,0.7,0.2,1.1,0.5,1.2c0.3,0.1,0.8-0.1,1.1-0.4c0.4-0.3,0.8-0.7,1.3-1.1c1.3-1.4,3.5-2,5.4-1.6
			c1.8,0.4,3.3,2,4,4c0.8,2,1,4.3,1,6.6c0,2.3-0.1,4.6-0.4,6.9c-1.4,9.1-5.8,17.8-12.5,24.2c-0.8,0.7-1.2,1.6-0.9,2
			C796.2,220.2,797.2,219.9,798,219.1"/>
		<path clip-path="url(#heroSvg_SVGID_4_)" fill="#484746" d="M681.1,177.5c-1.6-9.4-2.1-19.1-1-28.6c1.1-9.5,3.9-18.8,8.4-27.1
			c4.5-8.3,11.2-15.5,18.9-20.9c7.8-5.5,16.9-8.9,26.3-9.6c9.4-0.7,18.9,1.8,27.1,6.5c8.2,4.7,15.2,11.5,20.5,19.3
			c5.3,7.9,8.8,16.9,10.7,26.2c2,9.3,2.4,18.9,1.9,28.5c-0.4,6.3-0.6,11.5,0.1,11.6c0.7,0.1,2.1-5,2.5-11.4c0.6-9.7,0-19.6-2-29.1
			c-2.1-9.6-5.6-18.9-11.2-27c-5.5-8.1-12.8-15.1-21.3-20c-8.5-4.9-18.5-7.5-28.4-6.7c-9.9,0.7-19.4,4.4-27.4,10
			c-4,2.8-7.7,6.1-11,9.7c-3.3,3.6-6.2,7.7-8.5,12c-4.7,8.6-7.5,18.2-8.6,27.9c-1.1,9.7-0.6,19.5,1.1,29.1c0.8,4.5,2.2,7.9,2.6,7.8
			C682.4,185.5,681.9,181.9,681.1,177.5"/>
		<path clip-path="url(#heroSvg_SVGID_4_)" fill="#484746" d="M741.4,184.7l3.5,17.4l0.9,4.3c0.3,1.4,0.5,2.8,0.5,4.2c0,1.3-0.3,2.6-0.9,3.6
			c-0.6,1-1.7,1.8-2.7,1.9c-0.3,0.1-0.6,0.2-0.9,0.4c-0.3,0.2-0.5,0.4-0.7,0.8c-0.1,0.3,0,0.7,0.4,1c0.4,0.3,1,0.5,1.6,0.4
			c1.9-0.4,3.4-1.6,4.3-3.1c1-1.5,1.2-3.3,1.2-4.9c0-1.6-0.3-3.2-0.7-4.6l-1-4.3l-3.9-17.3c-0.1-0.7-0.7-1.1-1.2-1
			C741.6,183.4,741.3,184.1,741.4,184.7"/>
		<path clip-path="url(#heroSvg_SVGID_4_)" fill="#484746" d="M789.5,232.5c-1.6,2.1-3.4,4.1-5.4,5.6c-2,1.5-4.4,2.7-6.9,2.8
			c-2.5,0.2-5-0.5-7.2-1.7c-2.3-1.2-4.3-2.9-6.3-4.6c-1.9-1.8-3.9-3.7-5.9-5.5c-2.1-1.8-4.4-3.5-7.1-4.5c-2.7-1-5.7-1.3-8.5-0.9
			c-2.8,0.4-5.5,1.3-8,2.5c-5.1,2.4-9.2,6-13.6,9.1c-2.2,1.6-4.4,3-6.7,4.2c-2.3,1.2-4.8,2-7.3,2.4c-2.5,0.4-5.1,0.2-7.4-0.7
			c-2.3-0.8-4.3-2.4-6-4.3c-3.3-3.9-4.8-9-5.6-14.2c-0.5-3.5-1.4-6.3-2.1-6.2c-0.7,0.1-1,3-0.5,6.6c0.4,2.7,1.1,5.4,2,8.1
			c1,2.6,2.4,5.2,4.2,7.4c1.9,2.2,4.2,4,7,5c2.8,1,5.8,1.2,8.6,0.7c2.8-0.4,5.5-1.4,8-2.6c2.5-1.3,4.8-2.8,7-4.4
			c4.4-3.2,8.5-6.7,13.2-9c2.3-1.2,4.8-2,7.3-2.3c2.5-0.4,5.1-0.1,7.4,0.8c2.4,0.9,4.5,2.4,6.5,4.1c2,1.7,3.9,3.6,5.9,5.5
			c2,1.8,4.2,3.6,6.7,4.9c2.5,1.3,5.4,2.2,8.3,1.8c2.9-0.2,5.6-1.6,7.9-3.3c2.2-1.7,4.1-3.8,5.8-6c1.6-2,2.3-4,1.9-4.3
			C792.4,229.1,791,230.6,789.5,232.5"/>
		<path clip-path="url(#heroSvg_SVGID_4_)" fill="#FFFFFF" d="M731.6,249.5c3,1.6,6.6,1.7,10,1.7c1.2,0,2.5,0.1,3.7-0.2
			c1-0.2,1.9-0.6,2.9-0.9c2.1-0.8,4.2-1.4,6.3-1.9c0.3,1.4-0.3,2.8-1.1,4c-1.6,2.3-4.1,3.8-6.8,4.9c-1.2,0.5-2.5,0.9-3.8,1
			c-2.4,0.3-4.9-0.3-7.1-1.4c-2.2-1.1-4.2-2.6-6-4.2c-0.7-0.6-1.4-1.3-1.8-2.1c-0.3-0.7-0.8-2.5,0.3-2.7
			C729,247.5,730.8,249.1,731.6,249.5"/>
		<path clip-path="url(#heroSvg_SVGID_4_)" fill="#484746" d="M754.3,246.6c-3.9,2.6-8.7,4-13.3,3.9c-4.7-0.1-9.3-1.7-13-4.5
			c-0.6-0.4-1.5-0.4-1.9,0.2c-0.5,0.5-0.3,1.4,0.4,1.9c4.2,3,9.4,4.6,14.5,4.6c5.1,0,10.2-1.7,14.4-4.6c0.5-0.3,0.6-1,0.3-1.4
			C755.4,246.3,754.8,246.2,754.3,246.6"/>
		<path clip-path="url(#heroSvg_SVGID_4_)" fill="#484746" d="M754,247.9c-0.3,2.8-2.2,5.3-4.5,7c-2.3,1.8-5.1,2.7-8,2.6
			c-2.9-0.1-5.7-1.1-8-2.9c-2.3-1.7-4.2-4.1-5.5-6.7c-0.4-0.9-1.3-1.4-1.9-1.1c-0.7,0.3-0.9,1.3-0.4,2.3c1.5,2.9,3.7,5.5,6.4,7.5
			c2.7,2,6,3.1,9.4,3.2c1.7,0,3.4-0.2,5-0.8c1.6-0.6,3.1-1.4,4.4-2.4c1.3-1,2.4-2.3,3.4-3.7c0.9-1.4,1.6-3,1.7-4.8
			c0.1-0.4,0-0.8-0.2-1c-0.2-0.3-0.4-0.4-0.7-0.4C754.4,246.8,754.1,247.3,754,247.9"/>
		<path clip-path="url(#heroSvg_SVGID_4_)" fill="#484746" d="M794.1,217.5c3.4,21.3,1.4,43.5-6.1,63.7c-3.8,10-9.4,19.6-17.4,26.6
			c-8,7-18.4,11.1-29,11.8c-5.3,0.3-10.6-0.3-15.7-1.8c-5.1-1.5-10-3.8-14.3-6.8c-2.2-1.5-4.2-3.2-6.2-5c-1.9-1.8-3.6-3.9-5.2-6
			c-1.6-2.1-3-4.4-4.2-6.8c-1.2-2.4-2.3-4.8-3.3-7.3c-3.9-10-5.8-20.7-7.4-31.4c-1.6-10.7-2.7-21.5-3.3-32.3c-0.4-7.2-1-13-1.8-13
			c-0.7,0-1.2,5.9-0.8,13.1c0.6,10.9,1.8,21.8,3.4,32.5c1.7,10.7,3.6,21.6,7.6,31.9c1,2.6,2.2,5.1,3.5,7.5c1.3,2.4,2.8,4.8,4.4,7
			c1.7,2.2,3.5,4.3,5.5,6.3c2,1.9,4.2,3.7,6.5,5.3c4.6,3.2,9.7,5.5,15,7.1c5.3,1.5,11,2.1,16.5,1.8c11.1-0.7,21.9-5,30.3-12.4
			c2.1-1.8,4-3.8,5.8-6c1.8-2.1,3.4-4.4,4.9-6.7c2.9-4.7,5.3-9.7,7.2-14.8c7.6-20.6,9.6-43.1,6-64.7c-0.8-5-2.2-9-2.7-8.8
			C792.7,208.5,793.3,212.5,794.1,217.5"/>
	</g>
</g>
</svg>
